<mxfile host="app.diagrams.net" modified="2024-02-27T07:51:41.661Z" agent="Mozilla/5.0 (Windows NT 10.0; Win64; x64) AppleWebKit/537.36 (KHTML, like Gecko) Chrome/122.0.0.0 Safari/537.36" etag="2-ZU5sD7lJ5dsZLPJQpY" version="23.1.7" type="device">
  <diagram name="Страница — 1" id="p4bwfT8WGQ6u3UlQNvpx">
    <mxGraphModel dx="729" dy="1158" grid="1" gridSize="10" guides="1" tooltips="1" connect="1" arrows="1" fold="1" page="1" pageScale="1" pageWidth="827" pageHeight="1169" math="0" shadow="0">
      <root>
        <mxCell id="0" />
        <mxCell id="1" parent="0" />
        <mxCell id="dtlOCBRjH-W2J19ggVPA-2" value="Пользователь сайта" style="shape=umlActor;verticalLabelPosition=bottom;verticalAlign=top;html=1;outlineConnect=0;" vertex="1" parent="1">
          <mxGeometry x="90" y="140" width="40" height="70" as="geometry" />
        </mxCell>
        <mxCell id="dtlOCBRjH-W2J19ggVPA-4" value="Получение расчетов" style="ellipse;whiteSpace=wrap;html=1;" vertex="1" parent="1">
          <mxGeometry x="260" y="50" width="120" height="80" as="geometry" />
        </mxCell>
        <mxCell id="dtlOCBRjH-W2J19ggVPA-7" value="Подтверждение/отказ" style="ellipse;whiteSpace=wrap;html=1;" vertex="1" parent="1">
          <mxGeometry x="260" y="190" width="120" height="80" as="geometry" />
        </mxCell>
        <mxCell id="dtlOCBRjH-W2J19ggVPA-8" value="" style="endArrow=none;html=1;rounded=0;exitX=1;exitY=0.3333333333333333;exitDx=0;exitDy=0;exitPerimeter=0;entryX=0;entryY=0.5;entryDx=0;entryDy=0;" edge="1" parent="1" source="dtlOCBRjH-W2J19ggVPA-2" target="dtlOCBRjH-W2J19ggVPA-4">
          <mxGeometry width="50" height="50" relative="1" as="geometry">
            <mxPoint x="660" y="270" as="sourcePoint" />
            <mxPoint x="710" y="220" as="targetPoint" />
          </mxGeometry>
        </mxCell>
        <mxCell id="dtlOCBRjH-W2J19ggVPA-9" value="" style="endArrow=classic;html=1;rounded=0;exitX=0.5;exitY=1;exitDx=0;exitDy=0;entryX=0.5;entryY=0;entryDx=0;entryDy=0;" edge="1" parent="1" source="dtlOCBRjH-W2J19ggVPA-4" target="dtlOCBRjH-W2J19ggVPA-7">
          <mxGeometry width="50" height="50" relative="1" as="geometry">
            <mxPoint x="660" y="270" as="sourcePoint" />
            <mxPoint x="710" y="220" as="targetPoint" />
          </mxGeometry>
        </mxCell>
        <mxCell id="dtlOCBRjH-W2J19ggVPA-11" value="Менеджер банка" style="shape=umlActor;verticalLabelPosition=bottom;verticalAlign=top;html=1;outlineConnect=0;" vertex="1" parent="1">
          <mxGeometry x="90" y="280" width="40" height="70" as="geometry" />
        </mxCell>
        <mxCell id="dtlOCBRjH-W2J19ggVPA-13" value="Оформление документов на кредит" style="ellipse;whiteSpace=wrap;html=1;" vertex="1" parent="1">
          <mxGeometry x="260" y="320" width="120" height="80" as="geometry" />
        </mxCell>
        <mxCell id="dtlOCBRjH-W2J19ggVPA-14" value="" style="endArrow=classic;html=1;rounded=0;exitX=0.5;exitY=1;exitDx=0;exitDy=0;entryX=0.5;entryY=0;entryDx=0;entryDy=0;" edge="1" parent="1" source="dtlOCBRjH-W2J19ggVPA-7" target="dtlOCBRjH-W2J19ggVPA-13">
          <mxGeometry width="50" height="50" relative="1" as="geometry">
            <mxPoint x="660" y="270" as="sourcePoint" />
            <mxPoint x="710" y="220" as="targetPoint" />
          </mxGeometry>
        </mxCell>
        <mxCell id="dtlOCBRjH-W2J19ggVPA-15" value="" style="endArrow=none;html=1;rounded=0;exitX=1;exitY=0.3333333333333333;exitDx=0;exitDy=0;exitPerimeter=0;entryX=0;entryY=0.5;entryDx=0;entryDy=0;" edge="1" parent="1" source="dtlOCBRjH-W2J19ggVPA-11" target="dtlOCBRjH-W2J19ggVPA-7">
          <mxGeometry width="50" height="50" relative="1" as="geometry">
            <mxPoint x="660" y="270" as="sourcePoint" />
            <mxPoint x="710" y="220" as="targetPoint" />
          </mxGeometry>
        </mxCell>
        <mxCell id="dtlOCBRjH-W2J19ggVPA-16" value="" style="endArrow=none;html=1;rounded=0;exitX=1;exitY=0.3333333333333333;exitDx=0;exitDy=0;exitPerimeter=0;entryX=0;entryY=0.5;entryDx=0;entryDy=0;" edge="1" parent="1" source="dtlOCBRjH-W2J19ggVPA-11" target="dtlOCBRjH-W2J19ggVPA-13">
          <mxGeometry width="50" height="50" relative="1" as="geometry">
            <mxPoint x="660" y="270" as="sourcePoint" />
            <mxPoint x="710" y="220" as="targetPoint" />
          </mxGeometry>
        </mxCell>
        <mxCell id="dtlOCBRjH-W2J19ggVPA-18" value="Отдел оформления кредитов" style="shape=umlActor;verticalLabelPosition=bottom;verticalAlign=top;html=1;outlineConnect=0;" vertex="1" parent="1">
          <mxGeometry x="540" y="280" width="40" height="70" as="geometry" />
        </mxCell>
        <mxCell id="dtlOCBRjH-W2J19ggVPA-20" value="" style="endArrow=classic;html=1;rounded=0;exitX=0;exitY=0.3333333333333333;exitDx=0;exitDy=0;exitPerimeter=0;entryX=1;entryY=0.5;entryDx=0;entryDy=0;" edge="1" parent="1" source="dtlOCBRjH-W2J19ggVPA-18" target="dtlOCBRjH-W2J19ggVPA-13">
          <mxGeometry width="50" height="50" relative="1" as="geometry">
            <mxPoint x="660" y="270" as="sourcePoint" />
            <mxPoint x="710" y="220" as="targetPoint" />
          </mxGeometry>
        </mxCell>
        <mxCell id="dtlOCBRjH-W2J19ggVPA-22" value="Отдел учета&amp;nbsp;" style="shape=umlActor;verticalLabelPosition=bottom;verticalAlign=top;html=1;outlineConnect=0;" vertex="1" parent="1">
          <mxGeometry x="570" y="55" width="40" height="70" as="geometry" />
        </mxCell>
        <mxCell id="dtlOCBRjH-W2J19ggVPA-23" value="Формирование отчетов&amp;nbsp;" style="ellipse;whiteSpace=wrap;html=1;" vertex="1" parent="1">
          <mxGeometry x="414" y="50" width="120" height="80" as="geometry" />
        </mxCell>
        <mxCell id="dtlOCBRjH-W2J19ggVPA-24" value="" style="endArrow=none;html=1;rounded=0;exitX=1;exitY=0.5;exitDx=0;exitDy=0;entryX=0;entryY=0.3333333333333333;entryDx=0;entryDy=0;entryPerimeter=0;" edge="1" parent="1" source="dtlOCBRjH-W2J19ggVPA-23" target="dtlOCBRjH-W2J19ggVPA-22">
          <mxGeometry width="50" height="50" relative="1" as="geometry">
            <mxPoint x="660" y="270" as="sourcePoint" />
            <mxPoint x="710" y="220" as="targetPoint" />
          </mxGeometry>
        </mxCell>
        <mxCell id="dtlOCBRjH-W2J19ggVPA-25" value="" style="shape=waypoint;sketch=0;fillStyle=solid;size=6;pointerEvents=1;points=[];fillColor=none;resizable=0;rotatable=0;perimeter=centerPerimeter;snapToPoint=1;" vertex="1" parent="1">
          <mxGeometry x="120" y="140" width="20" height="20" as="geometry" />
        </mxCell>
        <mxCell id="dtlOCBRjH-W2J19ggVPA-26" value="" style="shape=waypoint;sketch=0;fillStyle=solid;size=6;pointerEvents=1;points=[];fillColor=none;resizable=0;rotatable=0;perimeter=centerPerimeter;snapToPoint=1;" vertex="1" parent="1">
          <mxGeometry x="240" y="70" width="20" height="20" as="geometry" />
        </mxCell>
        <mxCell id="dtlOCBRjH-W2J19ggVPA-27" value="" style="shape=waypoint;sketch=0;fillStyle=solid;size=6;pointerEvents=1;points=[];fillColor=none;resizable=0;rotatable=0;perimeter=centerPerimeter;snapToPoint=1;" vertex="1" parent="1">
          <mxGeometry x="300" y="130" width="20" height="20" as="geometry" />
        </mxCell>
        <mxCell id="dtlOCBRjH-W2J19ggVPA-28" value="" style="shape=waypoint;sketch=0;fillStyle=solid;size=6;pointerEvents=1;points=[];fillColor=none;resizable=0;rotatable=0;perimeter=centerPerimeter;snapToPoint=1;" vertex="1" parent="1">
          <mxGeometry x="240" y="210" width="20" height="20" as="geometry" />
        </mxCell>
        <mxCell id="dtlOCBRjH-W2J19ggVPA-29" value="" style="shape=waypoint;sketch=0;fillStyle=solid;size=6;pointerEvents=1;points=[];fillColor=none;resizable=0;rotatable=0;perimeter=centerPerimeter;snapToPoint=1;" vertex="1" parent="1">
          <mxGeometry x="300" y="165" width="20" height="20" as="geometry" />
        </mxCell>
        <mxCell id="dtlOCBRjH-W2J19ggVPA-30" value="" style="shape=waypoint;sketch=0;fillStyle=solid;size=6;pointerEvents=1;points=[];fillColor=none;resizable=0;rotatable=0;perimeter=centerPerimeter;snapToPoint=1;" vertex="1" parent="1">
          <mxGeometry x="130" y="305" width="20" height="20" as="geometry" />
        </mxCell>
        <mxCell id="dtlOCBRjH-W2J19ggVPA-31" value="" style="shape=waypoint;sketch=0;fillStyle=solid;size=6;pointerEvents=1;points=[];fillColor=none;resizable=0;rotatable=0;perimeter=centerPerimeter;snapToPoint=1;" vertex="1" parent="1">
          <mxGeometry x="120" y="280" width="20" height="20" as="geometry" />
        </mxCell>
        <mxCell id="dtlOCBRjH-W2J19ggVPA-32" value="" style="shape=waypoint;sketch=0;fillStyle=solid;size=6;pointerEvents=1;points=[];fillColor=none;resizable=0;rotatable=0;perimeter=centerPerimeter;snapToPoint=1;" vertex="1" parent="1">
          <mxGeometry x="330" y="300" width="20" height="20" as="geometry" />
        </mxCell>
        <mxCell id="dtlOCBRjH-W2J19ggVPA-33" value="" style="shape=waypoint;sketch=0;fillStyle=solid;size=6;pointerEvents=1;points=[];fillColor=none;resizable=0;rotatable=0;perimeter=centerPerimeter;snapToPoint=1;" vertex="1" parent="1">
          <mxGeometry x="320" y="270" width="20" height="20" as="geometry" />
        </mxCell>
        <mxCell id="dtlOCBRjH-W2J19ggVPA-34" value="" style="shape=waypoint;sketch=0;fillStyle=solid;size=6;pointerEvents=1;points=[];fillColor=none;resizable=0;rotatable=0;perimeter=centerPerimeter;snapToPoint=1;" vertex="1" parent="1">
          <mxGeometry x="230" y="350" width="20" height="20" as="geometry" />
        </mxCell>
        <mxCell id="dtlOCBRjH-W2J19ggVPA-35" value="" style="shape=waypoint;sketch=0;fillStyle=solid;size=6;pointerEvents=1;points=[];fillColor=none;resizable=0;rotatable=0;perimeter=centerPerimeter;snapToPoint=1;" vertex="1" parent="1">
          <mxGeometry x="520" y="285" width="20" height="20" as="geometry" />
        </mxCell>
        <mxCell id="dtlOCBRjH-W2J19ggVPA-36" value="" style="shape=waypoint;sketch=0;fillStyle=solid;size=6;pointerEvents=1;points=[];fillColor=none;resizable=0;rotatable=0;perimeter=centerPerimeter;snapToPoint=1;" vertex="1" parent="1">
          <mxGeometry x="380" y="330" width="20" height="20" as="geometry" />
        </mxCell>
        <mxCell id="dtlOCBRjH-W2J19ggVPA-37" value="" style="shape=waypoint;sketch=0;fillStyle=solid;size=6;pointerEvents=1;points=[];fillColor=none;resizable=0;rotatable=0;perimeter=centerPerimeter;snapToPoint=1;" vertex="1" parent="1">
          <mxGeometry x="560" y="60" width="20" height="20" as="geometry" />
        </mxCell>
        <mxCell id="dtlOCBRjH-W2J19ggVPA-38" value="" style="shape=waypoint;sketch=0;fillStyle=solid;size=6;pointerEvents=1;points=[];fillColor=none;resizable=0;rotatable=0;perimeter=centerPerimeter;snapToPoint=1;" vertex="1" parent="1">
          <mxGeometry x="530" y="60" width="20" height="20" as="geometry" />
        </mxCell>
        <mxCell id="dtlOCBRjH-W2J19ggVPA-87" value="" style="shape=image;verticalLabelPosition=bottom;labelBackgroundColor=default;verticalAlign=top;aspect=fixed;imageAspect=0;image=data:image/png,iVBORw0KGgoAAAANSUhEUgAAAuQAAAHPCAYAAAAbJ88NAAAgAElEQVR4Aey93ZErN7Z1e1xoG+RC+9BPN+73Jhvkgjw4BihCEZ8BskAWtANyoD1oH3Rj1NVgz70aSWbVriqwyLkiKGQC63cCCUyyqM3/+bNSBIpAESgCRaAIFIEiUASKwDYE/mdb5AYuAkWgCBSBIlAEikARKAJF4M8S8i6CIlAEikARKAJFoAgUgSKwEYES8o3gN3QRKAJFoAgUgSJQBIpAESgh7xooAkWgCBSBIlAEikARKAIbESgh3wh+QxeBIlAEikARKAJFoAgUgRLyroEiUASKQBEoAkWgCBSBIrARgRLyjeA3dBEoAkWgCBSBIlAEikARKCHvGigCRaAIFIEiUASKQBEoAhsRKCHfCH5DF4EiUASKQBEoAkWgCBSBEvKugSJQBIpAESgCRaAIFIEisBGBEvKN4Dd0ESgCRaAIFIEiUASKQBEoIe8aKAJFoAgUgSJQBIpAESgCGxEoId8IfkMXgSJQBIpAESgCRaAIFIES8q6BIlAEikARKAJFoAgUgSKwEYES8o3gN3QRKAJFoAgUgSJQBIpAESgh7xooAkWgCBSBIlAEikARKAIbESgh3wh+QxeBIlAEikARKAJFoAgUgRLyroEiUASKQBEoAkWgCBSBIrARgRLyjeA3dBEoAkWgCBSBIlAEikARKCHvGigCRaAIFIEiUASKQBEoAhsRKCHfCH5DF4EiUASKQBEoAkWgCBSBEvKugSJQBIpAESgCRaAIFIEisBGBhyDk//f//t8/X/vaiHlDF4EiUASKQBEoAkWgCBSBCwIPQ8gvFZ24gLxXikARKAJFoAgUgSJQBIrAPSDw0IT8//l//88S4xLyJSztLAJFoAgUgSJQBIpAEdiAwMMScsi4r4lrCflEpPdFoAgUgSJQBIpAESgCuxB4WEIOoP2EfNeyatwiUASKQBEoAkWgCBSBswg8HCFPEn503U/Izy6P6hWBIlAEikARKAJFoAh8NAIPRcj9isq1FkBLyD96WdV/ESgCRaAIFIEiUASKwFkEHoqQU/TRp+LZX0J+dnlUrwgUgSJQBIpAESgCReCjEXg4Qp6AJQnP/hLyRKPXRaAIFIEiUASKQBEoAjsReFhCnl9bmQCXkE9Eel8EikARKAJFoAgUgSKwC4GHJeQA2k/Idy2rxi0CRaAIFIEiUASKQBE4i8BDE/IjEPoJ+REy7S8CRaAIFIEiUASKQBH4bAQehpBDsl/z+mygG68IFIEiUASKQBEoAkWgCKwQeAhCvirsVt///M///NlXMega6BroGuga6BroGuga6BpgDeyUvdE3Vr4b+I2lN3QRKAJFoAgUgSJQBIpAILCbF5aQx2T0sggUgSJQBIpAESgCReD5ECgh3zTnu4HfVHbDFoEiUASKQBEoAkWgCAwEdvPCfkI+JqS3RaAIFIEiUASKQBEoAs+FQAn5pvneDfymshu2CBSBP//887fffvvz73//+5///ve/L3j84x//+PPXX3+93PeiCBSBIlAEngeB3bywn5A/z1prpUXghYhCPNl4eP3www9//u///u8LMf3555+fBiEIOfVbs/e0lSJQBIpAEXg+BErIN835buA3ld2wT4oAnwTzifDf/va3F1LuJ8O0kFD6IerPJLwRoW7fmPTT8Wea/dZaBIpAEfgWgd28sJ+QfzsfvSsCD4dAkvE//vhjWR/9EPZKESgCRaAIFIFnRKCEfNOs7wZ+U9kN+4QI8Ekw692vZxxBgB6Cbr5Wff/85z9fdCH7P/3000X/xx9/vHwvO78agz9sZp8xf//995c3BMZNP//6179evtvN12vwQR18ss1L+1WO9M142BvD9kjvpcD4jzhqZ5u5os6bG/oc542Ob4TeuxbikRfYEA9Mcp5X9c++tDfnbKnlVl0vCuM/Ey/uJ/7kouQayLmdNplbXusHjBN/rsVfnbSb1+Q5Mco89SHm2vMc+Jcndfiri3q0+FYmPvoh3/STuKCT4xMb8px92Mw+6zGmbeZm3o7RZv7qti0Cj4IAa3yn7I2+sfLdwG8svaGfDAEPVg7lMwIZwIZXEgNJCoQHYQyy6Vc98A+R8rBHR2KUhAh9nj+/r42/POwlDxJLbLlGB3/YJUnRz2vyPlPfCitzF0tikxdkTMG3pInauPevD+9di/HNR5IHPsqZOcj8qcc5BFPn4VpdxpqteLlGGHd+MyZ1sHasw/l2bsEt14hxyBNsXafgjR/jcc84fbkGXSv6MSft6Bc3fKwk89U+a6IGYmsvFqljn3U7n+pgm3UbxzkhL7EhX8X6EpsjPepIvcwBP8ZMbIzTtgg8EgI8aztlb/SNle8GfmPpDf1kCLDWX7veITqSMuGS7HnPAS1xsE8iJfmZNuh5wEtCJAraoANByPjaJNGELEAmIIrKzBsd+mb9Z/X0a2se5k4/8TNXckryIibTx3vUQhziKdRLrflJ5pk50J4W+6zHsVt1qZftCi/qnjniW/KNvWsicZw26M15ZD2ydlL0lYRVW/VWea5wU582STH3iZtEOucYHUm+a30VN9eTuauPj/lsGDvnnL6JzUoPvxkPHet2ja9yRK9SBB4NAZ7hnbI3+sbKdwO/sfSGfjIEWOuvXe+rw9yDWvjQ0fdsJVfTBttrBzx2+qVVjmwkOOrNvPG3yuGsnn5tZx4QRmq3XvVo0YUgio1j04f9b60Fe4g4uUCuiEfNyqr+oxywwT6x14/tUV2OZzvjQAAlmeY4ddI+r2ddjM15RGe+SUQPEstYSta4ymGFW9rntW+MJM7a+um4uvPNyIx7bT0dPRv4PoPN1GPNkM/E0JzAjPy9p60UgUdGYO4Rn13rtzvUZ0ffGG838BtLb+gnQ4BPH1nvkoUz5c9DGhtJhvboSKrsm602xJ+vPOC5hkxCSrme8enDPm2OcsIWkSSbQ+aW/q/ppQ3X5pG1QAAhNwokBv8QGnzP+Pp4r1okg3xi6yezOS/Gz5y9njlQA2NiaE20t+pKXa+zVsk4Y8Qwx9TRbtWmjeM5j/plDU1BD/uUrHGVw8SN52jONf7wO/96oO185owza8eHrxkDm2vPhjlon23WqB6xJeP0TQzpI6ZvYvRHX6UIPDICrPWdsjf6xsp3A7+x9IZ+MgQ44FnvkoAz5a8OaUmG9uhwaE/hsPfwnjboMkY+6ngvMUZnxldHG2POr4NoB0mVJK9yOKtnHNuZB/eQJQgZ8XhJ3LSZ8acP9d5SC76Jl8RvzvWMT7yjHBjDHnxSztSV+l4bh/nIr29kjqmjnW2uibRx3Hn0Hp3VmkQPnFKyRnOgVRI36vfTa56nKdSGf31qmzVjYxx85b1xaXM9qZ84zJrxcwYb9Vhnxqdv5Y83X9ZjDuaITaUIPCICPEc7ZW/0jZXvBn5j6Q39ZAh4uE7iNmHgoIZ4IKtDWpKhnQQlyQJj6WfaMD4P+JXOjD9tzAHykgQJO/qsA70j/2f0jGO7ykP/jF0bv+aDsbfUMnHCzyRn5md82lWejmOP35SV/spv2nCtXRJA+jNHyT7rM+eNNxlplzbGmfX7tR/ipkDSc50wxjpVzDPtVvWtsNEHuTDO80buK10IujrYXYvL2CqHWTN+8IluypHe/AvC1GMOwIv5oJZVjhmn10XgURDgOdope6NvrHw38BtLb+gnRACCwAHLi4Obg1aBJHBI+ykrBzLkcH7SCIHJ50Y9+jjU8WurbwlSxpNkSOQnsaff+IwlKSAnfeFH0kA885lEm5zIUbuzetaQrblK3PBJTvqXiEn+0DM+OPOS4LxHLeALBsSlLvMjPvggZ+bAGqmHWubcn6lLH9maD61i/WJEv2uCueOatQZu1IQYn1oUxqidXFPPPueb2K4T+vBPm75WeYqb8dQhN+ZRP4xTEzF4KdQHltZOTHLNNwL6xB5Rx/XkuM/K6tkQm8TzCBv8Zt0rPes2pjlYh/W1LQKPhgDPx07ZG31j5buB31h6Qz8pAhz2kAFID+ufF9cc5Iwpjh21ECX1aT3AISOQFEUiqh9Ix+xDH1Jgv77JE3+SAkkcsejHJ7qQEcU4jtGffVzrx358HOnp15ZctcsWHxA0hdwZB1viMca9RMwc3qMW6nc+8Q+WkD76GCO3zJXYs885M6+pf7Yu9WwnXviffeKPDWPOLdhQCzLzwmb2kbMy68aX61U78cFmhcfswz825GhexMG3eGFDX0rWhH2S2olF+nE93Xo2rCdtZx9js4/Ysw8966YuZObIfaUIPCoCPAM7ZW/0jZXvBn5j6Q1dBN6MAIQDwsdh/pkiefjsuB9R4yPV8hH41GcRKAJFYAcCu3lhCfmOWW/MIvCFEYCUfzYxfiQS+0i1fOFl3NSLQBEoAt8gUEL+DRyfd7Mb+M+rtJGKwNdHwD+d+xWWr1zRI9XyleehuReBIlAEEoHdvLCfkOds9LoIFIG7Q8DvtbJZ8uL+q8oj1fJV56B5F4EiUARWCJSQr1D5hD4P97b/+UGKYlEsuga6BroGuga6BroGnnUNfAL9PAzRT8gPoelAESgCReDxEeDgrRSBIlAEnh2B3Xvh0+7Eu4F/9oXf+otAEbgPBLoX3sc8NIsiUAT2IrB7Lywh3zv/jV4EikAR2IrA7kNoa/ENXgSKQBH4C4Hde2EJeZdiESgCReCJEdh9CD0x9C29CBSBO0Jg915YQn5Hi6GpFIEiUAQ+G4HPOIT4xUl+pZIfleqvPX72DDdeESgCZxD4jL3wWh4l5FfQmf9EGZPli5945ueFP/sHUq6k26EiUASKwKsReM0hxE/Q//zzzy8/I+9eCMnOn4RfJYCdP4hUQr5CqH1FoAjsRuA1e+FH5FpCfgNVDhIPHlX5tIcfKIGUM/b777871LYIFIEi8KUQOHsIuefxQQS/1qqw//3www8vn36zN14TYpWQX0OoY0WgCOxC4Oxe+FH5lZCfQJZPgFYTxaFEP4dRpQgUgSLwFRFY7W2zDj/dhoyvhA8u+ICCvfIaKSdWCfkKwfYVgSKwG4Eze+FH5lhCfgJdv7qyUmUC5yRy4EDS6eeQ4k+8Cp8m/fTTTy+/Ngihl+wTw0+dsNcvLfceiPajj2DDIWk//vSzspl92PHJl/arVn/WQDv9mM+012bmCQYe3NNmdU88BBvw9K8T1Dv/QuF8rfwwNvFFbwqYGoNx7CYO5OT8oZs1TXzMJeeHmBOXOa6dLTZe265ioTdxEMNcn/qgpb/yfAgw97fE/Ww+A2nHcznXEfraOs66pI9nhr0n5dbzjT+ff3Td+/DnPpDPA/1T8EGe+ayt9gR0fOkDW58r8icXxX5tyGP2EWf2oTfj57PItXtR5mzcbI1ti2/nAB+8cTpzBukTXeePds6XcciRF3tg9p2t1RjaZuubQOpwvhm/hYU1tC0CZxFgXe2UvdE3Vv4a4N1UZrp+nYWNTpHcshEibFLEYmPjAKEffTYTNq/cjPPw4DuZ2OV3M9GlDzsFGzYpfJMP9/hWPHzc1OhHVz2uiYEeYr7mT968VnLk2/rwjaBHn7XgL+swH3BOMRfqUsQNG14eAPOgoF5rwJZ4iYH4TjvjkIv5imvODzVQkzFoV3UTlzoQdPCRfri+Nn9igx7XCjb4FpsjPdeueq5PcMOGnPBjrfpv+zwIMP/XxOec9X1NXEvuP6wvbHzuXHuud++xU2493+i6piHDPIf4IU4+D+ZMX/onjm8MfC6NzTOQfcTJ5w6f3OvPPSRtfC7RVdQjT2Wlhx/yTT2eU59VnmHwodbcC/RJu9oHiEXN1IMP8seHWHNvbOpTyAMdbPDrXmv9GU8bxmYNZ2rFt4I9uSLE9U0PueGLPnLinvwqReC9EGDt7ZS90TdW/hrgPQAyXTZcNoO5+bD5stkpbB7o5KaNv7mRuCG6Gbux5eYnkU1fxCKm4mHjPe2MTx85uOmlrnlk3Byf19O3h1b6ZhPNDRcf5E2/ssrHXNQBG+KBqcI1G3Nizhi2WcPMc4WvPmk9BOwjP3woxJw6Hrw5HzOuh5p+zszfGWzwN/XAZuYtpmJzCwfzbPu4COS6XlXpGmEtXRP19OfzmuR0Pg+SLPyqf+v5dg2nnrFznyHfuc9g4x6JnxR8ZN98ntiv3J+1Yx/PvcfcHKc1N1plpWde6rmXakPrGZB7TI5znXlDXOc+pc6tM4i6sFfAjvnLfZuxxOyttRqDlhirtXZmr0w/vS4Cr0XAveu1du+l/x+G8V4ev4if1wDP5oD+6pWbUZbO5sWmyYGDXerlhqkNm2/qzY2N8amjLS36kj38pKRf+1c5MOZB4aGg/lGbvqmZA2P6Tp0jP9Mmc9EGHfCcMg8ybbOGmcPEd/rMe3Q5DDyMtfVeXQ8s8lQyrn6SNKjH2NH8ncEGP1OP/JzPjENOHMYcttZCW3lOBFgP18Q1kut6pa+e/lzPqZvPA/34lNByfeb5nmta//jJHLl2b5BY8kwc7aPkf22fJvejl/5XuYkLrTL12Dcl2+qps4q52kP0Td282I/QMzfHadXJvsTFnFex5xwl4dfOGvBvHcZa1eoYLTHJ70jw7dpCt1IE3guB3evpaVfza4Bnc5j6bF5uCpAbNj8FIs7hwEbFZogtm5Ky2gwZS73c2IjFa+pwj3/8kcOKgGmD7/labXpunrmhvgQ++I85S8ZRm/Wpc+DipXva0Gku2qHj4W1f6mXO2Ob9zEF8ExM++RFn/RMTHebSOdZ29SkVutgo6d+xjHFm/sxh+uI+BT1j+2ZhYog++bNe0l9ilT57/fgIzHU0K2a9ulbmWN77XLC2ENdt6uCHNamkDtdnnu/Vmjae69/7uf9KZGce6JP/zC39YXPrOTE38co2bdUjLgSVvUX81EMn46N7RrAxLuQ59xvt0Vn5xo645qL+tRZ9RTtroP9MrdrTksMqtzN7ZfrpdRF4LQKsvZ2yN/rGyl8DvBvcKl1JuZ8SsPlwqOQm6Can/WozZENOPTc2SB8btpI62BDLQwad3PxWNvatckj73FC1WbXkQ+1JTqdvdOafOfElaeR62tA3a0EHXxJj81EvMacva0jcsBNfdcAYLOenP+jiF5LBeB6czrl50M5aM64HCn3EPTt/Z7AhtnrMhRiJTeZIHtSC/sQh9Xr9HAiwHm8Jz4Xr9kjXteZe4N6Y+vk80M8aZC16zbhrVzv9+nx777gtzyj+FK/ZeySm7jkzD2x4FvCtYK8P+rBZPfO5P69yWz1j6mFrXVNPnYkHuWRM87U1b/ySM7VPH+poQ4uOuJjLKk72YZOYaEerWMe1WtWlJYfEnT7isE5unXXpp9dF4LUIsPZ2yt7oGyt/DfB+mrhKl80IX25Kq42OcTYlZaXDQYEeZAlxY/Nw0zZ9qbPa/NSnTRv7Vzkw5uaZPrVZtfieZHv65h699Dk38mmTuRgXLFa1gP0k0tRBDGXarbAzT22yFRcPdA4HXhmDa+Kog/1RXPytcjBOxj6DDfrozcN3+iNH31yw1lY5ZOxePz4CrNFb4jphja2EdcXzwNpS5p5G/3we0Hf/OPt8zzWNX9byfPbMFSLIGLF8Xmce+KDGJJvzuSNPapRAW+ctkih2tIo1pK+pJ6FO/9iTY+apT9vMe55PKx375nw5n2KGHjiTu8L1tRrQO1Or/miZG+fO/olN+lWnbRH4XgRYeztlb/SNlZ8F3o1+6rsx0c/GxT2SmzYbmYcMm6obGZsNdpJtbCFSknr8aKcOfW5KbtBzw2Zc327aUwc/eXjmZssYvsnt2oaPHqJvD1T6Vr7NG5yoERw4HN3IsaH+SSatRWzRww4/+ERouTdfD4jc0Fd5iu/0g3/igYP5cU8/uNjn4YUeefHiGj3FuM67OvjB3nHsrMWanT9swAW/XCvqJTZnMGSujI8vcch1Zoy2z4EA6+GMuOZZQz4HrEn6V2vUtev6TnvtiO0zSB/r/NrzTZ48T9jls0dO89nLe/IzD5879wjy4nljb8q65vOknbHJAx3zJzefL5/LzJc4inrGu6VHHOJRg3nrK1sxd7/wnpzzGXf/sI98ibE6g9y3GUMHnwh1U0eKc6xfxs7Wii55kGvOHf1i7xwS2xrcKzOPXheBtyDA2tspe6NvrPwM8D7w6K5ebE5sELn5snHQjz4bmIcMfW6++OVe/2x4kjYg8cAxJpvP7MMWIQZ6+EOPzcnY3OuDFpvZR79iPtoYw/Fspx/ym33pm7zEhc1WLPBpPNtVH74R8ARzdfGVY2DJy8Nvhdvswxc2OZfGoZ9xcqeGlKwJPecbnRUW+CFf4ivX5g8d67Rd9c1Yzps2s/UQnThkXubX9vERYH2cFfY6nhOfZWxZ0z5v08/cD9XneeE17XzuXLP5fOvbdZv7ANfYIvN5oA8bcpljPCvuezyLK/vEB3tyom/uCfoxd3RnH3nMPmLOPp9FaiIv96Gs8yXZ8R9j25JD1kwc45G/cfFvzHQJsXau0XXfRtcYR+1ra8089UmfcmuvVK9tEXgrAqy7nbI3+sbKdwLPxubGuBGChi4CRaAIvBCrz4KBfXdF/F4TXzL4GpvqfovA955BzAFvDvLDKCP4pu1751l/bYvAZyGwkxdSYwn5Z810xPnezTBc9bIIFIEi8F0IfOYhVEL+XVP1bsbfewblV1KOkjqjc2Tb/iKwA4HP3AtX9ZWQr1D5wD7+BMmfB/mzp39i/cBwdV0EikARuIrAZx1CfiXBr4ZcTerKIGSSnFefzl4x69BfCPQM6lIoAmsEPmsvXEfvJ+RHuHxIvwcSk+4rvyP3IUHrtAgUgSJwBYHPOIT8mon73ltjpj3X/VrElYldDPUMWoDSriLwFwJv3ZfeC8Cn/oR8bu69/88bhWJRLLoGuga6BroGuga6Bp5pDbwXuX6Ln6cm5G8BrDZFoAgUgUdCgMO2UgSKQBF4dgR274VPuxPvBv7ZF37rLwJF4D4Q6F54H/PQLIpAEdiLwO69sIR87/w3ehEoAkVgKwK7D6GtxTd4ESgCReAvBHbvhSXkXYpFoAgUgSdGYPch9MTQt/QiUATuCIHde2EJ+R0thqZSBIpAEfhsBHYfQp9db+N9HwL8cmf+wir/cgv/lG/lcRHgV6n5F4188U+X5hp4lMp374Ul5G9YSfxCWf+5wjcAV5MiUATuDoFbh5D/7jd6Z1/95wjvbprfLSEIOQScfweef9Oc39Sg77MFkvjjjz++rMkz8VmTuX57hp+bMfiOuDHX7AeP+nxT507ZG31j5W8Fnk0IWxZppQgUgSLw1RE4sxe67x3p+u9bc1j3B8+++oq4nv8ff/zxQspYC7wgxbt+pMl1Rx7XPrH1x5DM93qFHRUBiPczcR3Wx07ZG31j5W8FnsXJpwPY79qENsLW0EWgCDwYAmf3Qj8pX5UvMXrUT85WNbdvPwKsOz61ZQ1f+5RcYole1+j5eXsmMg4qZ/fC8wi+TrOE/BV48S6bh97D52ixMqn5Qp9PFbCFzGufOnn966+/XrJi8/ANABsPfhBavsfFGHnln+74Ux6yivMy8Nd/PGCN3Y0q0el1EXgOBHj+z4j7xUrXvWbuIexN7lPEYQ9zf9KPft2HsmVM39lPXwpx2V/V4XrGwUbyxr7J/k1+yCoGvnLPRQ/9/FCGOH4ym39FMI9s3df14Rh7t3kQg1ocW7WrXCceL0Ut/mNszxTw9UxBHczEiNiZ28yL+5kL/sBnlTd9xEWI6ZlF/8R5kfqyi/gZ07lIZWrGv7mSdwq54MP8WK/KrIP+2Sf2Yut4Yoed8Vkz5MDLuNgwTp5g5NrVly065IsP9Fw3RzUwDibEIR7X2OIv17/1ZksOvFi32tC6jtW9NpfWbP7kMfsYW/Xhn3ypE1wU6jAfxnK+1HlrSy47ZW/0jZW/BXgXNGn7IK0+JechYMHw8oHh4WThYMcid+NwIeIbwZ/XPDA+NPT7sOITO3PArz5ZoNRmXjws3ONnJTxcjM+HbKXbviJQBB4PgbN7ofvNCoG5j6nDnuUexr7FNfHc/9Rjf8SHgg59yq19jD0z42CLD/dB9kf2RmPQetC7RxvD/Rcd93HzIAZ9+MXOOO7J1oUt8fWFPtfogYn7rXmAbQrj2tLPeJ4n5ko+Z8XY4kROYIBfhPvM2RqS8KzOC/XMBX1iIXPNOEZMsEOPuNwn6XoxPvEfYhPD3Fc+wJG8zTNxBUdiM4ZYnzrkxzgva0LPeScuwtiZeSVezjVxcp3iFxzVMf7UAUfxu1YD+bEmsccn8ajV/J2zlyLGf4iBPnVZp/nSKmBjLuhxn/PgWkVHsS70xHXq0U/O5Gie1uJ8mQ/P93sIOO2UvdE3Vv5a4Fkcuch8uF0osxQWkg8Vi5TFvRL95AJHz4csbVh05M2mgbgYXdD06S/zwmb616/6tJUiUASeD4GzeyH72ZGu+0juMx6euT9xzYENEUzBLveg1Z616tMH9hmHe/T1Scy5B0u+3E/xNWOwj9KnQCqSWLgnG0e9FR6MESv3ZvrIixjs+Qr2iWWeJ+rMXO0/aokNDinU4lxIiDIPzjzPMeysK+sVg8zXGEdrhpiJuxhod7YlD/NzrjI31xutuWee1O+bKGNSs5jQt8Le9aXN2XlFP+NPP/ojJ0lmxodLpD36Z2pgrcz179xIto1tyzg4mEf240+7M3O5WqtZl75TLzFwHJxzbpjXtFHvrS2+dsre6Bsrfy3wPATzwXVB50FgSS42xtgoXLyO2642CcZ8UMlzvtzQ1dGXLQuW+Ar28yF2zPi5iTnWtggUgcdH4Oxe6H63QsR9JPcZ9CcBxFbylXsOdnm/2rNWfatc2GshVe6T5jb3bw/zo70SO/ZS/WQsYlAH4+SVuaNnzMSDfjHEZr4yP+zTFrvME19n8TDvlQ/HZksu5ppxrct6Ie8S+cxXf/rwfrb4AV+xmOO37rE3P+YEP95jSx3mZe7eM27cVeuZjb/0iR0+sFEYX/mgL+cV/STG04/+aCHa5GB81ivX5qXuUVz61eU667SSllUAACAASURBVMYWcku/c6k/W2vy3pZ6sMs3VIxdm8tVfOvSL6165E39RwIWxGd/0eZI9zX9+Nope6NvrPw1wDP5brzYzddc6JTlYkaXRZOfOmTZq02CcXzi45ocPcxzoc98Oax812v8o4fyWvyOFYEi8PURYH84I+5pK133kdwL0WffnOK+lXsOfXlPTukLH9f2MWPom9iSEXObBEKf6CozBmO5d3MWSMTx56fDmTu+jDlrwN/sM3a22KcedpknujPX3NfTl9crH47ZEpfzCjLE9bSxLlrJOLar+aIfe8amMDeMkbOkeaU37ea9OdovuacfwT9zhph74kpMdV+UFv+xBnTnS3V00q/9qzb1uF7VDbaSzYy54hKM36oBnYxLXuJxZGvdswbt9HdmLrOGvCZGyhxz7lKH5459heeQ2KvaUv811/jaKXujb6z8NcCz8Fx8mbJEncUxFw4LjRcPFrF4kKYOvubi1j/xsFvZSKbV0caWTSgXOn7Mn3wYp4/FbPyjh1KfbYtAEXhMBNgLzgh7ypGu+4j7DP7Un3uY+xZ7kUJf7kG5Z6mTfXMfU4eWfS2JmbnlJ5Pq4zM/icsYEg36zI2aViTPcf0aM/FgTHv1bMEofXCdttjxSslcr+GhDfarN0ieA+acn+jOuOr4ZkTfmYt9tNgzlkKt5JF/eXBNpN6Za/JJXKiFePRJ9PVj7okruqt14RmL7cSAvpkvOqyLKXNe8Zu+px/tJePMq/GpDdwm3zhTAzpZN3HIg35wWQm4rMbFEXzPzuUqvnVlbPVYX1zns4keNVB/7h3apJ+3XuNrp+yNvrHys8Cz4I7INOn7QM3FnovNhb168F3c054FR465aREvH2hjJ4xuSLmpzgWrHbGNT1spAkXg+RA4uxeypx3puo/kPuahmn2gyz7InpqCDnutMvcs+mdf7mPa2ZqP++eKyBAPn9f2Sv1Yw8zBcdoU+7VzTEwyJmNgkvVjn8QtzxN9zVyu4YGN4zMnMXJc/7QzrnVRR8rMxbHVmtEHrbKK7di1Fh/ESKEe8pnntnGzfgjfJHj4EhOuJwb0zXzPzuuKYJJrir7NIePPMezO1LCaH/zP5zDzOOIgrF3fFIjprblcxc+6jJt6fnD42udAX29p51y8xcf32Hy7Er7H0xezPQM8GySLNj8RmWX6LpMF6qLEjoWunffEnBsZi5v+FVnnQWMMXzyI5JKbTz6cxOCFTb5T96FCF4GwM06+XK8eqFlj74tAEXhcBM7shb7RR9d9LhFxL2J/Yh9CaN1rtKFl7/GQxY49Kvc196wkL/Yd7WPsjfokLvfk6n7rPks/4+pc2yvVwY8EmtyxYQxMMo6xqN14c1/Hjv0cn9RMPbbaUQd21CyO2PDCHrmFx4vS+A+25E9s8ja2tU1SST8xqZcx6lUna/UMwWcK8bAlnnkzbu7qYw8G6FG7L3LNdZG+vSaPxCX9u1bUBVNirNZVYoI/1yt5i0HWYL5ggqiHH+fT1vjkOnNy/TjXPh/Ujs/0ayzyIY7zJp5HNRCfMXxaFy19PjPmOFs5iPNNDsSfsa/NpfmpQwzqIh+fJfqmnveZN/lwzxg+yCvrNj9yFK9Z07V7fO2UvdE3Vn4GeB86dFf6PFyO2a76WPw+AOjhF1npJiQsODYRFiB2LGj6FO19qKdOxjQ/WhY1C5qXtrRvWcDm0rYIFIGviQB7wjWZ+yD67mHY5d7iNXsTwn7lHsMYBzD7kmPsbbw84N3T9EOca/uYvvCHrWQFn+bwEuyvvy7mOHur++lRDPJNP+RpzpAB9kzuyVNfswZqScFGojPzFGtyQ1Z5rfqIgc/EI2N6zZ5vjCRWjJO/Y7Tk6flD3bMuYs0+7BTn0DZxxC/95IAfiCH31u294/rMVr+26d/81VcnW7Gi9Y0D8ZKkpj7XyOzTz5l5nbZ5/8svv1x8W0uOc00s5sJ+9a7VYM5gQn3YzjrFabasCdcAduCU+KB/bS7Jy1xpyWH20b/qwzf1ac8169caiEt+5EQfYz6P3IvNrOnaPbF2yt7oGyvfDfx7lO5ifQ9f9VEEisBzIvAIe+FzztzjVy0J++qVQkR5A+ebtqwHIgmphJR+lPCMv4WgflQ+H+0XLP1U/zWxdu+FJeSvma070y0hv7MJaTpF4AsisPsQ+oKQNeVPQADyyl9XHkFukUNIeQn5+80062b15udWhN17YQn5rRm643HedbOA+DNNpQgUgSLwFgR2H0Jvybk2j40ABPXoE+XHrvz9q/PrII/y5uYaQnAh1s1bOdHuvbCE/Nrs3vEYCydfz/TnqDuelqZWBL4cArsPoS8HWBMuAl8EAf+Knlzhi6S+Jc3de2EJ+ZZpb9AiUASKwH0gsPsQug8UmkURKALPjsDuvbCE/NlXYOsvAkXgqRHYfQg9NfgtvggUgbtBYPdeWEJ+N0uhiRSBIlAEPh+B3YfQ51fciEWgCBSB/0Zg915YQv7fc9KeIlAEisDTILD7EHoaoFtoESgCd43A7r2whPyul0eTKwJFoAh8LAK7D6GPra7ei0ARKALnENi9F5aQn5unahWBIlAEHhKB3YfQQ4LaorYiwD/1xz/zxy+hVorAWQR274Ul5GdnqnpFoAgUgQdE4DWHEP++Lz9Z7c9XY8uvDN764ZMHhO2uS+JHUZgT5oY54sWc+XPjd538OyTHOvV3Ot7BXV08CQKv2Qs/ApIS8o9AtT6LQBEoAl8EgbOH0G+//fbyieOPP/74Jz/covz+++8vZA/y95Zfx9NP2/dBgLmBfDMfzI1CPySVT41z/hx/tNZ/g/vR6mo9H4fA2b3wozIoIf8oZOu3CBSBIvAFEDhzCPlrf5DxlfCJJESvpHyFzuf18YaIeYCQH705Yo6egZSXkH/eunuUSGf2wo+stYT8I9Gt7yJQBIrAnSNw5hDyKyrXPlnl6xD4gghB0Lk+evkVF0kTn9xyzctYmZef7tIHmSRWylEc+vE5xbjapY59q9Y3Jjmmb/9SwBg18BcF5DVYWPuqRuNca/neNPHFd6VLnuiAOWLMrMlr34CJ12fPk/nz5oI5Bxdym5/+q+capCZyR1dMyH2+SWE+8YUevtFVh3kDR3yhZ3z0cr3gV7ycc/OhNQ986Vv9VZu+uc6aff6cD+25n33OlTq06Mw1jB5Cbn7vPm24xuYZhFp3yt7oGyvfDfzG0hu6CBSBInBB4NZeCAlAB2JwTTzoIThcS07shwwgEB2vuYeo5D0EAR+SF+JLitQnn7RBFx3FmNeIKfb4meQeX9RKnvrNfOjDTiJDTGpFRxtJIHmcwQJ7fKKLmFt+5cTarrWSN4nbkS6xeFELuSpZF2OJza55IjewlSybM7m6xtARM2pHBxt0wNT7nDOwBS8xp+XeucaPBB9STSxs9JuxJd3pn5xYD86JGNOSz631Sr3WjB/i4gtbhPmgvlzj5ExfzulKj1qnHjbpL/HM3B/5mvp3yt7oGyvfDfzG0hu6CBSBInBB4NZe6OE9ycbFwV8X6k1/9nPAH0mOESdjSYbSVnKSfWljTNprgk0SI3QhWklEZz7oUGPmDFGCNCmQJnTIPcW80pZxSBM+FO2nnuNHLTEn/itd9SY+9CeO0zbzmbh81DwxH+QlESUnrpm3xIz7xJtcEwv9+GYF/Zxn/E7y6nzlGyNiEzfXDbGITTz9449+ie7EMnE2jvOBj/SPLTngXwI+bfSPTs7TSk9fqUc+iRdjea//R25311tC/sirq7UVgSJQBG4gcOsQ8kBPArFyqd70Z38e/mkPkZVk0D+JHv6OXkmCMz9j0l4T9fLTTvxMv35qii8/hbQefaxynKRKXW1nbpA9sMAOf0d60857c/D+qFVv4kN/4pj2u+aJfCaO5OWn19RAbhMvsKNPEXvw9TrnHT3wTwzUo02RfNtHLElufjpNjjMPbRLnGUcbcpkv/U8b/aKPvTL1WL9zDaNrTPyDg/f6eYYW7HbK3ugbK98N/MbSG7oIFIEicEHg1l7o4X1Lz4Mf8ppif5KEOY6OAlFJskLcHFdvtmljzLN2Ej7081NWYkhMyAM9iaD1GGvms7pXV9vUgSjyySv+VwQzdY+usT+DFzq8IF4p9CWOOUbuvJTPmifi5CfhxndezIvcE1fH1U/svc43guolBurRpkzf3KMDmSVXcIWg85q6+kmcZxxsclybbLUh3/nCXlGPVjLO2MSLPt6guIb0qZ9naKl5p+yNvrHy3cBvLL2hi0ARKAIXBM7shX5iy6F+JBKPSXIkBEkS0gcENInhiuihMwWyk5IExpjX8tVWXcgIhGr6VS9bMLMe7Vd2s09dbfXJPUQIwqRkDPtuteR/y84c5hsPfGObOGa8XfNEPuSVa4S8wIx+MFu9gXHcGqw7PyFfrSt8io02tCnYoacQCx3fvLKW9D3z0CZxnnG0mTVj65qaNvolL+wV9ahbW8amHn2M228O+nmGNud0R73/WVE7om+MuRv4jaU3dBEoAkXggsCZvdBDPUnExcFff+qHUM5Px9HRNkmCthAOSGQKMTIO5GiSVfSnnQSIMWPSnhHi8abDT8pv2Uha1LP2JFCQxFmzec3+WTN+ZwxjXWuJTy68Mpe0IRbj5DeFmIm94zvnCSK5woL5zvniOtfEJJSSTd/0rHCiTmL5VRbna66jVSx1eAYYd45nHmJ6bb1K7LMe7KhBUn2U28RKvflGeeoRE0x8ho/yNv9HbMFkp+yNvrHy3cBvLL2hi0ARKAIXBM7uhZAUdCHIkhoIDP0QEA7yFQnULgkIwSV5EhkTwhcvfUlOiA1BgSgwjp2kl9ZPNfEjiZskxBizPSItU49780niajwIDXVKFq1BP0dY5JsObPRnvdQnLisirX/zk1hJ3ujnWjLu/KUdfsFYQubY7nkiPjlRk2uFlvusD8zoozZtqAdd73POnAswZpwX11m/64I+cWf9Ecd7cGL+zEW/jjNmHvRhT3trvWrHvGNDbpm/a4R4ivmiq6hHq0w9aieO+KFn/NVa0c+jtczTTtkbfWPlu4HfWHpDF4EiUAQuCLxmL4RIcNhzeGPHC7KSpODiOL5WoG7Gyr6ja31BIIiDHrElPxIL+iQOkJb0B5k5I5ARiMk1wVf65lqB8IgLOZiP49ds0dUWMk8e1Gtd4E5+3J+pB3v0xEzc6FvVKI5ZG31I9h1dW+NHzRM5s+6MT13mZ2xasEMHnCSUrgfaWTvrSNzBV+z1KS74Yhzfc271z5j4SohzjPFffvnlkp/rY+o4v+RKPsbFp/mjgz9f3M8+/M4+6pl9GV/Snn3EWGEtRo/UUutO2Rt9Y+W7gd9YekMXgSJQBC4I7NoLIRoS60syf13Qz/hnCeRIEvVZMd8SB2IkaXqL/Vts7mmeXpO/xPM1NlNXQv4shHTW/2z3u/ZCcS4hF4m2RaAIFIEnRGDXIXSLWN4af8+pgoz7ieV7+n1vX/kp6Xv7PvJ3ax5ujR/5/ej+EvKPRvjx/O/aC0WyhFwk2haBIlAEnhCB3YfQLsght/xpnq8F8JWEexa+sgLxpa2cQ8CvXfg1j3NW32pJ6o++kvWtdu++OgK798IS8q++gpp/ESgCReA7ENh9CH1H6t9l6neM5/eGv8tpje8CAdZ0viDWrxUJvX64rzw2Arv3whLyx15fra4IFIEicBWB3YfQ1eQ6WASKQBH4JAR274Ul5J800Q1TBIpAEbhHBHYfQveISXMqAkXg+RDYvReWkD/fmmvFRaAIFIELArsPoUsivSgCRaAIbERg915YQr5x8hu6CBSBIrAbgd2H0O76G78IFIEiAAK798IS8q7DIlAEisATI7D7EHpi6Ft6ESgCd4TA7r2whPyOFkNTKQJFoAh8NgK7D6HPrrfxikARKAIrBHbvhSXkq1lpXxEoAkXgSRDYfQg9CcwtswgUgTtHYPdeWEJ+5wuk6RWBIlAEPhKB3YfQR9ZW30WgCBSBswjs3gtLyM/OVPWKQBEoAg+IwK1DyF8rRI+XP5DCD+pwT8vPztP+7W9/+5NfRvRHd3744Yc/f//9929QY5xfydQfuvlrisYjDte88KP+P//5z8t15uO4Lb+u6PWqJWeEX780X/S4dozx+QMx6FAn9VaKQBF4HAR4tnfK3ugbK98N/MbSG7oIFIEicEHgzF7Iz7ajR4tAiiGuvOjjXuIKUYWEQ4ghrtj5k+8Q77///e/f+EFHkm9S+ISIK4xjJ3GHMOOX+Apj+FIPHxJrST55IuTHi7ywsS7usadPW/SJI07EoUbu+5Pqot+2CHx9BHzGd1VSQr4L+cYtAkWgCNwBAmcOIT+VltDyCbfk2BIkvdmvHfoIxNdr7SS3SYAZm4R8knbyTh3s+SR96ukLffM3NrlAwFPwg26SfWtTD+I+4zvWtggUga+JAM/0TtkbfWPlu4HfWHpDF4EiUAQuCJzZCyXWtLxWX9eYpNUA+Qk4ZJl4q1d+2gzh9VNr/GA3iTY+JOS8CeAT75Ue9uY2CTk+5hsE9CHpjCnac08sbOan6Oq2LQJF4GsikM/8jgr+s+PsiL4x5m7gN5be0EWgCBSBCwJn9kIJObq8XkPIkyRzLYm+JLC4kPg7lD7sIw98ScbpX+nRL6FeEfL8JFzf+ElctLd+yPiZOvTXtggUgftHIJ/5HdmWkO9AvTGLQBEoAneCwJlDSEJO6/ep8xNsSpG0zrL4tBmCi9DOr4jQD6lOsgzhp09ZEW3yRi/zWOnhw9wyBv34WOWDH0i3or33/g+j6FWKQBF4DATO7IUfWWkJ+UeiW99FoAgUgTtH4MwhlITc/xESwsq1Mkkr/X7X2q+jQJ6J5722ScD9SohjtCuijZ/56fZKD3tzm4TcNxezH5KeX2XRfuZ0Bru06XURKAL3i8Du57mE/H7XRjMrAkWgCHw4AmcOoUmkvYe4SsolrRBZSDUvCG9+Ak2f/4Qh5BkbWwqVjE+CjA0vxpHV/3jJGG8SiKee4JETdfI98xT8aGMd1DbfbEjctSU/dMipUgSKwGMgcGYv/MhKS8g/Et36LgJFoAjcOQK3DiGJNnq8INAIrX0QVPUkv4xJzhMCiK8EF1KLnaK/ay2xchz72ce4knnSb/6OQ8pTh9wk5+jkmHHJGz1sK0WgCDwGArlv7KjoP7vWjugbY+4GfmPpDV0EikARuCDwXnuhhPzi+A0XEN35KbZu6Ge8UgSKQBH4CATeay98a24l5G9FrnZFoAgUgQdA4L0Oofcg5Hxd5JrcGr9m27EiUASKwDUE3msvvBbj2lgJ+TV0OlYEikAReHAE3usQ8qsd+XWPB4eu5RWBIvBACLzXXvhWSErI34pc7YpAESgCD4DAexxC+MhXfi/8ASBqCUWgCDwBAu+xF34PTE9NyPMA6fW3B2rxKB5dA10DXQNdA10DXQPPtAa+h1B/r+1TE/LvBa/2RaAIFIGvjgCHbaUIFIEi8OwI7N4Ln3Yn3g38sy/81l8EisB9INC98D7moVkUgSKwF4Hde2EJ+d75b/QiUASKwFYEdh9CW4tv8CJQBIrAXwjs3gtLyLsUi0ARKAJPjMDuQ+iJoW/pRaAI3BECu/fCEvI7WgxNpQgUgSLw2QjsPoQ+u97G+z4Efvjhhz9/++23ixN+JbU/2HSBoxdfGIHde2EJ+ZXF47+ryyT5ok/Jn1z++9//bnfbIlAEisCXQeDWIbTaB90Pj9r+s4dfZvpfnSiEHALOvzf/73//+0/OPvoqReCrI3BrL/zo+krIbyDMpuOhwycBKWxE/JzzTz/99OePP/6YQ70uAkWgCHwJBM4cQrkPropib8QP5B2SVnlcBPKDKOacs68/BvW48/1MlZ3ZCz8SjxLyE+j6CVGqcgBBxCtFoAgUga+MwNlDaLUPWreEvJ+Mi0jbIlAEvhoCZ/fCj6qrhPwEsquDCDLOJwUpfDLEd+vQ52Dimj/lMcno5ydHfLLOJ+yM8eJTBsfRtX+2/KnQwy/HyIN4jOfXZ/jkAt/qcj3zxpZ8sUUP+5XOrPXnn3/+xoaaFPwZ86gVpxzHbtaHnpK4kS/6CviBnXXM7zpmHK6R2Tdjq+caUB89xJj25zy+KPQ/ReDOEXCN30rTZ2Cl53OTzyN6PB/X9gl09OszlC1j+s5+nz9zIa57LXpc536EHjbuuewRuSevYuBn7oU+76s9Jv+KkLl6/euvv76kqw/7555BLY6t2lWuEw9xma2xzR98c6/P/ZXYmdvMi/uZC/5unV/kREx8W9/EeeZNnJxf8id+CvfqMM66U66tMXPAnvrJX1xcL97r71r+K0zwbRxa7mdOqz58nbHF56yZXLE9wsRa0HE95DycmUd9PEoLjjtlb/SNlb8GeB8c0+VhpG8KGzKkGN+Ms9B5oNx4WOCIGzfjiA+wGwgtGycyYztGDsTBN4I+usTIODxoHgTE5YGjD3tFG3ykjjmoly1+sEOHF9fkQ/0KcemjvhT6zJF+9cyTPjFJPd9w6A8sMia6bD7UQE7ibh20jPOyj1jqYYcc6TkXqQcO5k1eYItepQh8FQR4hs6I63+l6/PqnqbOmX0CXZ5Bn2vuycm9jXv3u9wPjEFLXMZ4dnnNZxqixbNpDJ9V8nMvMIY1oON+Yaxrewz67n9cU4O+2DO4JtaZPYM9RVtig33uW+Z6hIf5ZmtscSInMMEvwn3mbA2eS+ic2as9o9Cfa8YxYjJH5ERc7sHlSMiFcXQRsCFX8ablHr0czzdlrokXhb/+Y43Ykwv3YEIscOLeWOKE6a38nZ9cw+aY8+oZtsoTH4o5WC/9WQ+560sd413DhBpzPVA39euPFjmaR/N7lJY1tFP2Rt9Y+WuAz8XI4mbR5sMyy8A3D0eKPthQfFjTBz7RmaLd7OeeOD7cPHz5UDPOg4bfFGO7UXCfGw26+MG3RDPtufZB92Glj2v88DArYIUfNwT7M2/6VnrmYH3o4dvNhntrMU9qsi7G9ZHxwXPi7GaHjTL1qG/OBXHBOMVNMec2x3tdBO4NAZ7HMzLXf9r4DOfzenafwA92+ZzOPQKdVZ85YJ/7kc+0Ptmb5p68IpczBs934nNmjyGnFR70n90zsE8s5350Cw9xyZbYc6+nHvds99Pcu+a5ZF3iin/32czXuEdrhpjko7hvej9b4hFHMQ9j4ss60GEtzLl0TeiDVj9ZDznPc1Nbz58z+c/4q1irPmNlnuKTeU69+YbqFibM81wPzmXODXkczWPm+AjX+azvqOfcTrwjsw+O+RrgXYzY8JokbKaKDg9LCguc/nygGOcB1z/tFMdmP/fG4UFMIqruUa5sNowhPtTcz9dRneQ0H2R8zU1jtdmgR5zEZ+qxUXg4qDd1XpI/+A94kAubJrESc3KfOItBupt6zNPUQ2di5r0bd/rsdRG4RwRYs2fE9b7S9fn0eUUH/TP7BLrY5XNKTukLnVXfKheef/Y49y9zm8+kpI08lYyBHXuIftShvbbHMG7MWYMYEme+Mj/s0xa7zJMYmWvmdnS98nGkSy7mmnGtixZZ7dXpUx/Zl9f4AV+xyLGja+YNG+Y434Shzz1nLetu4gOe9KXMehhb4TTPI31cy3/GX8Va9c08IckSZfSV1BMT1iu5phxhor3YZzvX/K15zHhf+Xquj8+u5dvV+dnRN8Z7DfAuRhc9tqvNwHIYZ7GnzAePezYNiDTXq00Ae2OnL6+J4ws98kthbEXU0yd5cv8aQZ8Hf4oPuJvGrFn9iU/qucGjm3qpo5/ZUr9EnE15tYlZu7hlm/7QExcPSutTj/E5z461LQJfBQGegTPis7PS9fnM5wH9M/sE/rDDh5LPfvbl88oezDOe4jNKbEgzYm7zUz/G8Ieukv4dS4JzZo/JmIkH/cSafcbOlpxTD7vME92Z6wqP9LnykeNcE/fauSSWtEd7dfokJnlOYW4YI2f2V+dt6s1745Mj1ynML+uNMwD/xE0MVzH0l76OcEp/Z/JPffJcxVr1ZZ6sb9bcNT3i8KL2rJeY1zBBl1rPyNE8nrH9SjrguFP2Rt9Y+WuAn4vRd/RsJivB93wwkhz6cEn08HG0CczYGc84PHRcT/JN3ypHfHpQ+vBPMk+cedgZ25ymjb48wKyTNsW87VOPOjJm6qWOdrbiSF7Ua17aZHx0eKWYd/apR076m3rGSzuu0c+Yc7z3ReCeEOA5OyOs9yNdnzWeEUV9nx/7fY7cJ+inL5+ZfPa1yz5sedbpk3irx717ND7NDaI2BfvcNzOGpIs+c/OZtyZ9O65/+xMPxrRXz3buGdinLXa8UjLXa3hog737vn201Ek8c3Y/ZWzGVefaXp2+sSfPFGolj/wU1jWRekfX2HvmiREtPnNNJT74WsWwHlpl1kw/MfV3Nn/19buKteozT85C67mmp3/mjZjkj9zCxDjUMyXPYcZW8zhtHuEe/HbK3ugbK38N8KvFaF9uKpYzH0T60eNdPeKDoD4t/nhNMc7s5z7jeDjlg8RBg05uNtiha9488Oh4bxz8pC/7aedm6BgHnjXSt9pE6M+8Uw+/KannJsimmxsI+WuX+uk361/hfDQf1JKxpp445AFGXHBIu6yp10Xg3hDguTkj1/Yin3WeEcXnI/sYm/sEfejkMzOfZXRmn89jPt/GNh/3NfaNuXcQD5/5/M4Y+rGGo/GZw7QzLzHJmIzNPQP73H9X+9bM5RoexHDcWsxJjBy3n3bGtS73XHVnLvav1ow+aJVVbMeOWmJ63sw8sZk5rWKscln5kuz65gXft/Kf8VexVn3mKRmnlmt6iU/ivaojc3rN2Z9+M96jXYPPTtkbfWPlZ4HnAUSXVz4gbOaSYNocQ5fN3wfWh8kNdm7KPOxsLPhhjJhIxsjDirH5MHmfcenjHr/6xD993uNL4k4ObAZs0DyAR2JeGYsaubdGbK2TVhELD4HX6LlRmSeHGHmKjbVyT33EYC6Iz4t+cdaG+G42YqIeumf0iIEP8rO13rZF0okWuQAAIABJREFU4N4RYP3eEp4N9Hi5r6WNz2Y+jzw77D3X9gns2KewU9zL8pNr+9BHyEffPuvuPcTNZx99CRX9jKuDD2XGUIeaJdC39hh9GY89KgWf7Cv4dK+wRQ876sCOfBBtcj+auU48MqbX+CF/YoOD+5W1uV97T+t+yRgx1KFVVns6Y8QDX+JxrZg7OSDYgwF61O48qk9LruSjH/NwjdBSG77Rcdw68eE5J676Ja4102cu1kjd4OBcnslfHW3wS10zFnGtGx3kbJ7q/WX2giMYkKt+zmKCDRiDF/WnHM1j6jzKNXOxU/ZG31j5GeB9MNH1lYuVB9UNjnEPC67RY5FzTZubDAtc37T44cHFV24MxrTVvxug/bQI4/apy8ZgLMZ4iImXQj7GR4eHkr5rwjh6xmPjzYM6c0GH+9lHXrMPH7MPPYUxMaeWzBPsGOPFZur8YI+eudri02vbia2xHbe1VmK4MRKX/CpF4CshwJq+JjwDrntbnwvs7MvW5+DaPsGYz6v73urZn8+kcXjufA7JA1v33NWzyB6c4+x57h9HMdjXrIUYt/YY8zBHW/qVa3uGWEvkVnmt+ogz8TBetnkegIW4owMWxqclT88F9ObckMfsu7YuEkf8kjM54Eeyat2Zs9foSPCxzXOKupxbfFALuvRlzc4HMa3VPvOjHzvHV2vpWv5H82Oco5b4xlSH2mffSg998mQNUC9yCxN0wIlasMVHYvriZPF8i5Pjj9SCwU7ZG31j5R8JPL4fedFunLaGLgJF4J0R+Mi98J1Trbsi8OEIQIB5VZ4Pgd17YQn5B6y5EvIPALUui0AR+BAEdh9CH1JUnRaBNyJQQv5G4B7AbPdeWEL+zovIP1fxp59KESgCReDeEdh9CN07Ps3veRDgKxx8fYOvu3BdeS4Edu+FJeTvuN74mgoTmq93dF9XRaAIFIF3R2D3IfTuBdVhEXgDAn6Yluc3fZXnQWD3XlhC/jxrrZUWgSJQBP4Lgd2H0H8l1I4iUASKwAYEdu+FJeQbJr0hi0ARKAL3gsDuQ+hecGgeRaAIPDcCu/fCEvLnXn+tvggUgSdHYPch9OTwt/wiUATuBIHde2EJ+Z0shKZRBIpAEdiBwO5DaEfNjVkEikARmAjs3gtLyOeM9L4IFIEi8EQI7D6EngjqlloEisAdI7B7Lywhv+PF0dSKQBEoAh+NwO5D6KPrq/8iUASKwBkEdu+FJeRnZqk6RaAIFIEHRWD3IfSgsLasIlAEvhgCu/fCEvIvtmCabhEoAkXgPRHYfQi9Zy31VQSKQBF4KwK798IS8rfOXO2KQBEoAg+AwO5D6AEgbAlFoAg8AAK798IS8gdYRC2hCBSBIvBWBG4dQqtfIMYmX//4xz8u4fl1Q356nHF+hvynn3765mfIV7+ImL5++eWXQ9/ESd28Xvn1lxb/+OOPP7Ulp59//vmSr/36wmb2gcHsQ29iwz3Cz65Ttz5//PHHbzC4BP9L97fffnvxjz3XP/zww4vtxI468KVfcKYvZeroY+JDPTN/+hTGwIpYGYf8jL9qzedf//rXN7mSt2PEmHjia86NuZxpj/LNGsFiyq+//nrBmpxnTeqnH66n5Pj04T01gwHrj1pZJ84nc/7777+/uF3NFQP6sZ0xuU/bnE9iGRd75tR41qI/7Ljm5VrEJn1zr3/zsT27Rox7Ly3575S90TdWvhv4jaU3dBEoAkXggsCZvVDSwoGcgm2SHA54iIZ6tNxz+EMIFEiJhzl9EgEJmwc/dlOSSEhmIFIK45Id+vAJqTAnayGmoh/j068e5EJZ6Zm7etRJDtgjYpD16o+W3CUwEiFsjJX4Ugf9xMCO+8SI/Knd2MxHzhHjeU98dRIPYvIyTmKKb3GydrHFFy9yyzy414e2xLZGrokFYSQ/saT/jFzLF3vnMteFfsmLmNYgrvSRUwr58ToS4+hLvcScMeaZPnyBF/WSG33ER5wrMFLIBz1yNjf8YUe/go1rwD5snFNsucZuYo1drgVyzXhn8sKH83y0Rszrnlrw2Cl7o2+sfDfwG0tv6CJQBIrABYEze6GH/opo5OENQZyERZIyCUISVA/tS1JB0iUojEns1FvZ4Td9Q04m6YBgJIFZ+VnVvNKjXjAUG+qE7KSoI0nJMa/xMbGjDvrFgJwTR/3qg1pnbGyS1OGPOpRZJzkyjymS9ozNuHhYuzbkAMYpKyKnvXrUOfNz7Kg9ky/5gQG+swb6JaZZA9foznUDLhLhVT7apS/0Zk3Wnb60zfmbdtaa6xv/5Iku64HrnN8cz3hcU08+B9aU9vN5WtVzlBe61joxMdY9tWC4U/ZG31j5buA3lt7QRaAIFIELAmf2QsnCPFSx9fBWZ5IYDn70JonIew/tS1J/fWIKWUiCgl76107CKmFP38Q+emmnn4xvPVnz1PMTYfyrR+yjeJl7xuIaG/ynQB7Tt2PEkkgyrqx8OGaLTmI6Y1gjevOVdvhT19qPYtgPScenoj33rBP8M+cQvLOij5kr9+ZLfugRP99sQGAZQ3fWwDymLuP6O8rtyBf+ia+Ys/e21D7Xrnbgw3pjPHW0JTfi5Jsvx2Yt9vuGLmvnmcg3Lat4Wc+tvKw1Yxj/3lrq2il7o2+sfDfwG0tv6CJQBIrABYEze+EZoqFOHuYGIcYkEXnvoa2+rf2QBA7+JEjoQFAgMfiXvKOTvhm7RQaMg+58pa16xiYn61aP2Oi9Vog77aZvcMA/xNJPQrFTVj4cs8XeGvEjkTN/ckj8tFu14qGtOvg/IoaZr/bmwxxODPR51J7Jl/zQAzNicc/cXSPk6KDrmygwufVGQRvaFPxkXVzTN4UYib12kl70p44+0EEfDLlOwYb+KeaR+XKd96t4r8lrFWPmcS/3qzn5zNz+e0V8ZvSNsXYDv7H0hi4CRaAIXBA4sxdyQKOXBzUO6JNoqAPJmYLeJGhJPDy0px3EQqINMVr5njaTQBB7ZQeZV1bxrSdrVg9bydnUIz5Edwq1pK85nlg6Rhz6sUssHDcf71c4MyapVC/bmb8+J6nDJjHjXt1ZF3msMACbJIbam4+EOdeGY0etPq7lS37oIa4n3jjyBmfWn3HIgzd46K3qSV2uj3zNuTXnaU+MrB071m6+yWU8dfTB8wV+1DfHucfXxMg8XMv4Il7qreK9Ji9jzDVi3vfUUtdO2Rt9Y+W7gd9YekMXgSJQBC4InNkLzxINyACvPNC5JsYkhUmSPbQvScWFYxKjGFpeTgIBUSGnJB0Y5tcPjJEOVzWrl76mHuTpqN7EJWNxjQ3+U8jRvwrMOOiZjzYSL3QVYibW9ttOv9RGLokPupDxs4QczPGReeADwpl+Z/7oWIP53WrP5EseYgsWWd+sP+M5xhzM9Zt6XqtPmzLndlU3pB+9jMP96o0sGKWAqWvSN3E5565JMdAWHdcXfayVnB/65vNE39m80LXWiQlj9ybUtVP2Rt9Y+W7gN5be0EWgCBSBCwJn9kIP9PykTvKRBzhkAn/0cbh7wPvpIjb4gDSkLwmcpOKSXHyXfBKT1PGaeBCMfFMgYTMvCAI6SRCMDylSJBJJkNTLPKeeORAPMsO4rb5XLfrkbV7iKwm2DvFmHL/YocNLG/xAtogN9pnvjO3coqtYJzjRT0xiTaHf+DlGPHIgtpgShz7v0TeOtuSPjiSRmrhfxdYm/RzlS2wJ6iS+q/rTN7HJ4Yzoi1ZxTpw3+sEU3OjzOQELnxN0nG/6FXTJBT2uEXykb/oYx795oEsftuSDiLXrCx38OP6i9OefL3MBrsY7m5f2+FytEcfvqSXPnbI3+sbKdwO/sfSGLgJFoAhcELi1F0oe0OPF/exLwsQBzwGOLgQAIuRhrh369unXdhICEoWUSBwuiY8L7PRhqy9aSQq5pS9yUZ8W3dlH3rOP8LMPPQTSJ9kEA/tHyt/cEht/YjfzRBks0WOMPKmDe8kmOok/NV8j4zN/7hHmBp/kjn9IlfP1orCoXVvHiZv+wSPJeI4Rgxfx0DNn67Nefc/2Wr6uOfybIzGQHGN8NU+Q2sR3xvZ+5Wv2Gd9+ySqxE2Pmlj5f6M8+81WH8Ws1gVHGY21og51+rrUzh6O8xGTOsfU7fm8tte+UvdE3Vr4b+I2lN3QRKAJF4ILAV9gLIQ+PLswDBKfy3wiAiyT9v0c/tme+kXiPaNRzb88db4byjWrWST/jjy6756SE/NFXWOsrAkWgCFxBYPchdCW1lyG+MuKf3m/pfuXxEvL17PnJ7nr0Y3v9S8d7R7lHQn7rGbs1/t4Y7fC3ey8sId8x641ZBIpAEbgTBHYfQisYOPz58zZfFeDT8fl1iZXNV+7zqwB8paDyHwT4VJy18Jnzz1yw9piLW1/5+U+mr7vyqxz5FZ7Xeaj2RyCwey8sIf+IWa3PIlAEisAXQWD3IbSCCRJGXhCXRyctflpKvb5WmLTvcxCAkPP1jFvfW39rNs6xLfNfuQ8EmJOdsjf6xsp3A7+x9IYuAkWgCFwQ6F54gaIXRaAIPDECu/fCEvInXnwtvQgUgSKw+xDqDBSBIlAE7gGB3XthCfk9rILmUASKQBHYhMDuQ2hT2Q1bBIpAEfgGgd17YQn5N9PRmyJQBIrAcyGw+xB6LrRbbREoAveKwO69sIT8XldG8yoCRaAIfAICuw+hTyixIYpAESgCNxHYvReWkN+coioUgSJQBB4Xgd2H0OMi28qKQBH4Sgjs3gtLyL/SammuRaAIFIF3RmD3IfTO5dRdESgCReBNCOzeC0vI3zRtNSoCRaAIPAYCuw+hx0CxVRSBIvDVEdi9F5aQf/UV1PyLQBEoAt+BwK1DaPXDNdjkix/wUfhhFX7hkHF+YIVfPJy/tKgtvnmhk338KIv3s/3xxx9fbGY/94zNWPgnD8bzlxf5FUh+CZQxbLBFh9i///675bzYoGPfjEu9+MJOXxird1SjAY7yo18ftPrJPnBf6ZHT1DMedYgv7W+//ebQf7Wv8T11Mz7XRzlNvf9KIjqurS3qmL7ynjnKe67n3PkjVNQiRswp60TJMXyg59pQ50zrr3Wy9vGZ+Pk8kbPrkli5fokxMV3VZy74p5aVH3Resy70+Wgt2OyUvdE3Vr4b+I2lN3QRKAJF4ILAmb3QX86EAKRgC6FQONQ59NWj5R4ikUSZa4iMIrGQHKZPYkhQsJMczZwkZGnLNS/sIFvkQT7cE1NShE9yx4ekRXIGIcJH5iBZSx185BuCWzVS+7X8GLdGWkViia2y0hPT1KM+MCBv8mMMfNE9krO+sUcX4qeAGVgRCzF3cFIYW60Rx21vrS1i4x+R3FoXtryck8yJXJg7cmXcdaStvrDXN7ihywt7MHQtvCid/A+2xsFkPk/kiQ5x8M8985dCza5N+s1XLOgjX3PGTz4HjL9lXWQOj3IN/jtlb/SNle8GfmPpDV0EikARuCBwZi+ENKCX5AEH9CUBgzBImA2wInSMpd2Rf2Mk4dDvyob46kJIuE+BVJEzOSGSFwiPol8ITAqkRVJGDONAcLKWtMl+/dIiZ/KbNvqeuK/0rDVzgPgmcaRufEH6juSsb+zRzXiJk/5n7uIgnurN9rVrizjkMyVzAovVegUnRYysizbXC/dHsfRx1JJf5jixIQ/XKj7IFZ0piZ35qCO+3tO6NvT9lnWR/h7leoXtZ9b23zP7mdE3xtoN/MbSG7oIFIEicEHgzF4IaUAvyQMO6JOoqANxTZHQJGlgPImQttO/MaYt/dNG4m98iQk5zpdkW53Ml2sIyiomxBUSxxgvaqNNkpu+rtVo7Jkb9+Y3a9Q3OuJO39SDhPFKPXVW8eYbF+Oc9a0+MTIvcXKcNnMCP8jhSi9tzN25dexobYktdlOMhS04H80d46wpsMmc0x+2fNrsfOXYmWvqYZ6UozjUQQznTn1balKsfd5rmy0+xTb7vb62LvT/SC1175S90TdWvhv4jaU3dBEoAkXggsCZvdBDexIcbCVg6vip2yXAXyQsSQNj2nGt7fTPGDGmbdow7guCAZFC8L+yexn86z+TvDiG3bT1k0Zj2UJaklTpg/ZajWfyExdjZXvkm1zMB3319JX5nbnWjvbIt37QMR59KxzNiXla/cVBX9maw2vWFnGwm0JO4ng0d8ThTRlvqCDd5py+qJN+/B2R+tRfXSdWjM84+MU/pB/ybszpCx1l6nCf4+rZiq33z9yC/07ZG31j5buB31h6QxeBIlAELgic2Qs9tCfBSQKhTn4qbBD08msRkLHU03b6xx7bFaGYNtxDsCBS+JeYSNDNhVYiqE6OcQ0BmjHxTS6QUsZ4QZiIZ8z0c6tGY1/Lb9ao/8SdPvUgktZGf+qpk+P6W/U5pt0136lLXYo4eU9LTsx9kuuVXtqYQ64Zx/GXa4t+scVuirGYR2yZ15wDbJlP39RgnzimP+bfT65XsVJ3dY1tSsYhJ/JIHetKG66pSZk63meN6jLvYrtaA6s+bR+xBf+dsjf6xsp3A7+x9IYuAkWgCFwQOLMXemhP0pEEAocrcgoRQC+/bgBJSMJz5B+f2CbhMPGVjeSDMQlXEhpsIRkSDfX1SQvJWuVLn74kdejrwzF93arxTH6rGvFPLvhX1EuSu9JjfnizkeSMetOXPm3P+kYfXbHlPnHSH7lPAr3SU9/27NpC3zkhnykZC4JPPkn0c1zbibf9tOIz5z91VtfYXZsv/WYN1jX9Zf5T58w6e8u6mDk8wj3zvFP2Rt9Y+W7gN5be0EWgCBSBCwJn9kKIA3pJICQMSUQg3ejRB+njxTUkUMFuEjLt0j/6kuO01485SVjQRY/4XCPE4Z5PQSEq5ALhUiQvmS82GQ//SQapyU/LjeO9bzrO1ngrP2vUL3njW4ytQ73E75oe9UDieM1PiPVpe8Y3+UHE8ecbLXFK/5LDnH/0VoTQ+LaukZyrubbUpR+M8s0BY+bE/HLtPbpiR27kQ66MWz8+XUP6ZdxY2rumaI+EdcM6xF6hjzzERqzwjzCf2FgXWBOTXIyNnmvKecg+5sIa8jmwxtesi5ekHuw/YLtT9kbfWPlu4DeW3tBFoAgUgQsCt/ZCCQZ6vLiffXm4QxAkqB7wEo9pp89s0UEklDlGH3LkhzwkS+gRF+JCHviB3JhL+pFUTZ3MwbwyH67RkSzOsaN7fV3Lb9bI/eyj3tlHPrMv5wfy5fzQn8TtBdz4z/Rz5Bs/1ArWSOImBrMP37MP3WtybW1pZy7GzdrtsyV+5iAe4kM9zBEEnj6xInd1WFvcK643+leS8cxjtuaML8aIhR31c0+/c4Oua3r6wQa5ts7M8TXrQptHa8Fvp+yNvrHy3cBvLL2hi0ARKAIXBD5zL4REQH79ZPmSxF+fhjOW5CbHP+JaUvOevu+txvesrb7OI+An3dMCkgzBl9znOMQZYiwhz7FefzwCn7kXrqopIV+h0r4iUASKwJMg8JmHEGTjlpzRueXj7PhHEPIz+Z/ROVtD9e4PAcj20RtLCPmKjGcVXR+Jxuddf+ZeuKqqhHyFSvuKQBEoAk+CwO5DaCfMfBJJ/atP7Hfm1dhfFwG+VpLf+f+6lTxf5rv3whLy51tzrbgIFIEicEFg9yF0SeSTL6g7X0efaH5yWg1XBIrAJgR274Ul5JsmvmGLQBEoAveAwO5D6B4waA5FoAgUgd17YQl512ARKAJF4IkR2H0IPTH0Lb0IFIE7QmD3XlhCfkeLoakUgSJQBD4bgd2H0GfX23hFoAgUgRUCu/fCEvLVrLSvCBSBIvAkCOw+hJ4E5pZZBIrAnSOwey8sIb/zBdL0ikARKAIficDuQ+gja6vvIlAEisBZBHbvhSXkZ2eqekWgCBSBB0Rg9yH0lSDln7PjB1/6wy1fadaaaxE4h8DuvbCE/Nw8VasIFIEi8JAIvOYQ4t/r5me7/dlwbPnVwWf4IRN+RZH6+Un0EvKHfBRa1JMj8Jq98COgKiH/CFTrswgUgSLwRRA4ewjx6TBklE+I85cG+SEUCDrEHNL66AIZLyF/9Flufc+IwNm98KOwKSH/KGTrtwgUgSLwBRA4cwjxc9/oQcZX4ifHz0DKS8hXK6B9ReDrI3BmL/zIKkvIPxLd+i4CRaAI3DkCZw4hv6KSn4zPsvgqC774xUsIOtdHL7/igi46kFyueRmLfoW46NDHp/TESjmKQz8+j4RP9PGFT3R5Q8En/inoGJsWHXK0b+aCLfVZB23mADaO80bH+OSQelkTNlPQ52W+vmlKu7xmXCFO1uy80p823M8+6p593M/46CHg99NPP13ipf/MydymH/QR/0ID/mcxzPjG5U1l/iXHWqyLe+cOm5mPdenPlvy8XrVifGvN4X/aM1erdSZmbd8HAXDfKXujb6x8N/AbS2/oIlAEisAFgVt7IUQCHUjBNZG4QJi4hqAg9kN0EMiU19xDTvMeQoIPSRPxIUj4UZ980gZddBRjSvztny1xIIvY8+Ia3+aOPvngm3FyAQfuqcP7zAXiJGnEnhzwiW8EG3TogxwSC1KNTca2JvrSPz6wIQ/J4Yvjv3xnH3bYE1MhD2umBuLii3iI+SZ22OPHGo70xD31uMZWf6uczM3WeP5FhtyoC1+8XoMh9Rmb/Fa4MZ4YEws7MZn5kCdj+FIPH+gh1uiaZX5944Q+NWDPS3xyzVE3mBnH9ZI6L4P9z7siIObv6vQVzkrIXwFWVYtAESgCj4bArUNIkpVEb4WBetOf/Ul4pn2OESdjSVrTBlIDGUpJG2PSHgnkhlwlXehxDdnWN4QVHQkdOjM/CNXUl3wZW4IlYTO/1CM2fvKNBbGw1b/+iDnzcCxxkBg6Rvz0Tz85ZI3mNrFDJ+dppaev1CMfbJWZk/2zzXjMVWKFrvGzf2LIvIFViuTWuXBs5pw4opP5cC+WU48xa5wYnllzac814jrMHP8aavOOCOQ6fUe3p1395yk5bfIYiruBfwwUW0URKAJfHYFbe6HEZ0U8snb1pj/7j8gEZOMa4cXf0QtbJfMzJu2RoD/JKboSNmwlUOkHu4wl+YKgeZ154XMS1aP8JO7mTBxtyQURr5lH2nhtPvN+hafE9Sg3bHIOpx7185p65oB/CLP35nTU6od6wWXKjO94YghGq1rpE0/sxFQfK2zNBx3qYF5WeoxbIzmmoH9rzaU918QCO96UgW/l4xBgjnfK3ugbK98N/MbSG7oIFIEicEHg1l4oybqlJ0Hi0+sU+5PMzfEkLpPkEDfH0zavsVOMec0O/fnJM/ZJpvJa3zO/1PF6EifzYRzxfuanfcbiGhJnfbxhgKTNPKYN99Mf9/pRf7bmBu7zZf7YqEdLvdaMTeqhC/kF6/Q348771CVnak7J+NmfNWM3c0ldr/HFS1lha12ScXRXevSbQ/pU/9aaS3sxwOZMHdhW3o4AeO+UvdE3Vr4b+I2lN3QRKAJF4ILAmb0QQojeJBgXJ0FC8tNuxrHB9ohQSDD1NUkOtuhMya8qMIadYsxr+aKP70n0JFMQzLd+Qj5zMx+x8X7m56fz1mFN2JErn+SKxcRp2nBvLY55P2tm3JyPcptzqB65aYufqadv+83BnI5a9a19fkpu/GsYgtF8g0g86k+7W2sQG/JBzzmk72gOrDFjqI+fib/6vqnxHhvEdeh6+Ku7zTsjwNzslL3RN1a+G/iNpTd0ESgCReCCwJm9UPJzRAggGHyKtyI/2kIypmDnVyUcmyQHIoZvyYp6006iyrgxJyHSllaiN/PCj18rgACDT369YeaHvp96kiP6EycIK/34u5YfcbMu/YAT9oxb08zD2hKHSezML2NgR36S6iPsiJ9YqZcEFV9Tj5i5NmZO5j3b9MO64t4c0TW+eGifGDrHOX/ogZGk+MwaxIb4803B0RxY48zNfBJH83HNca891wqxyKHycQjsxvdpZ3c38B+3pOq5CBSBInAegbN7oZ/SQUokx5AZ+iETkCZJTkbXLoki4xKhSVrwxUtfkkjyhEhCVhjHDoLLPW2SJYnPJIuZF/7JGbJoDrTcJ/HDr7VJLolPTO+TYJEjuRobPeyzfuKgQz/jCD6I7T35JQ745R5xDH2u8Uc88jYueuROHOcr+/BFTPxK/BnHHpskseaLrqJexpt6mac5rHLSpy265GA87+dcncUQPWqkXltikR8xyDsFbBJ74+caw5Z8XBtpj09i5joyHvqzDu5TV4z0SX7oOP/2t31fBJiznbI3+sbKdwO/sfSGLgJFoAhcEHjNXghZhGxADLDjBcFI8nZxHJ/0qZuxsu/oWl8QEuKgR2zJiwSQPgmfnyTqM8my/mwlZOoSY5IzdPRJiw7xxCCJtn4l1+abpBUd84Z4QbTQw7c1oGNOtOjz0k+OcU08WnyQ77TXB/2Mk7NxmU9t9KN/7mcfMWYfuc0+9PRj3tmXOb0k/Nd/xEZbWiT9c63eNQyxY81KcKkZWyVjHF0bx/GMbR+tMmvkPgWsJezYzTU37dEhb2rI9ZE+e/0+COQ8vo/H13n5zyp6nd2X194N/JcHsAUUgSLwEAjs2gshGRLrCST9jN+jQJgmyXptnpI82srbEHgPDL/qGnwbYrW6hcCuvdC8SshFom0RKAJF4AkR2HUI+anpEeS3xo/sPrq/hPyjET7n/z0I+a01dmv8XKbV+ioI7NoLxaeEXCTaFoEiUASeEIHdh9BXgpyvG/CpKl8z+B7x6xdHX/X5Ht/PYlsMn2WmP6/O3XthCfnnzXUjFYEiUATuDoHdh9DdAXKQkJ/Igpevt3zlZH5H+Hu//nKQ7kN3F8OHnt5txe3eC0vIt019AxeBIlAE9iOw+xDaj0AzKAJFoAj8//8j9U4cSsh3ot/YRaAIFIHNCJSQb56Ahi8CReAuENi9F5aQ38UyaBJFoAgUgT0I7D6E9lTdqEWgCBSBbxHYvReWkH87H70rAkWgCDwVArsPoacCu8UWgSJwtwjs3gtLyO92aTSxIlAEisAugOcUAAAgAElEQVTHI/ARhxA/xsKPz/DjOW/5Hx8/vupGKAJFoAh8i8BH7IXfRrh+V0J+HZ+OFoEiUAQeGoGPOIQg5P6zdCXkD718WlwReBgEPmIvfA04JeSvQau6RaAIFIEHQ+CjDiH/mcAS8gdbMC2nCDwoAh+1F56Fq4T8LFLVKwJFoAg8IAIfdQiVkD/gYmlJReCBEfiovfAsZCXkZ5GqXhEoAkXgARE4ewhBsPmFSvT5tcqffvrpT365MoVfnmTMcXR//PHHl3u+T/7HH3+k+os93zVHH138//777xcdronDD8Fga3zvUfSrMdijO4WfP3eMr9JMG8bmSx/4Ju85Tr/CdeZvjeQy7bxH/0h8I0NcfPPKH8LxLw5gfw27tCEufrCxH1vzoaVfUYf+X3755aJHTlOoFz3mxtrRYe7EjtZfJbU+YxNr9jGGvjqr1rg5JjbEp94cy/qyhtThGpl9+sWnNTGHYHhNVn7IGx/Yc02d5IZvrvW/er6OMDUH4+GLV65B7nNe0aUu+rWj5d4cst9rnudHFWrcKXujb6x8N/AbS2/oIlAEisAFgTN7IUQAAiExoeUeEiYppw9fEGBEMsAB7z026tOHvcSDfm0gJtxnHMa4l0BAGhRJ9/RvDPLCNgUbc6MfsoJP85MQmt+sDxvGHIfsU485QNb0JREyfo7Zly1EDRvFmn1DQf817LSDPFE7/hD8EBvf1GNN+JpCH/OOYI+fFY74oz+xBDvsyTfn1TnQX5I79MAfO66Zn8w7Y5MXr2kza1jFmTr6yLlHR+zE3PVgDc6JGE2/3K9849c5ID/9Mif4xL+xWVvKLUwznjbOL7aKvsWWfmtRL+OCu2uResj9UYVad8re6Bsr3w38xtIbuggUgSJwQeDMXghZmQexJJgW4RCHjCqSAQkMxIZY6ktEOOQVCUz6gQxMwjgJRJIY/eOTfvIirnkYi3v8KMSReNBnDO1o0w+EBlxSIGdZo2P4pf81krmZi/ZnsZt2kLEp6kg8Ged6Yk4NzEv6kKBRW+aLXvpDD520nTbEnXNgruboXNh/zUadVRzHbFdxjakO6yrXpTVl3epmm77BZD5H6JLj7MeOfnE8gym+Mp+5Zh3Hbwqx6VvhSz+5PINMXD675m9n5bOjb4y3G/iNpTd0ESgCReCCwK290EPdT880lJB4WENOvUZHuzzkiSUpQ3cSWuwmOUAv/aLjJ5+SD2JwDYlMn/ha5WF+2nM/42iHT0iR97QIttSzeuUnjPq+hfOL0/hPEjRjOXwWu7TjevVpLvMI2cuc0Z3zTUznRpKIzmouVpjQl3PDPXFS5hw4Zh1ibz/tkY06qziO2a58GFMdW/CCnFPLa3xjB8Zipz/alR9i0E/Nrj3u5ysxxVeuG+0St1kXa8I3kqlnfsQDn2cQat0pe6NvrHw38BtLb+giUASKwAWBW3uhh3p+8qxxHtZ5zbh2ecinDod8fuKoTwmDdiuyhC6+0DUW135yjC0E6HsIuX4h5MTyZV7EO0tU0MP+NWJt2HCd9mex0w5bsJ4k23zUgyyC2yR56BGTcXyZmyQ++8AnczXGbNFZvVaYmp/Ypy+x1Re5mx969Od92no9feiLNsVPyVlXE4vUy+v0TW75VRH1VjmKI63X6l9rs1btaBWx5B4iznyv9NQnt9WcOP5I7Zzvz67t29X22dE3xtsN/MbSG7oIFIEicEHg1l7oYZ2fvGmMrZ94Qzby4NYuyUDqS1QgBCkSBokLeukXXWzwJfkghtd+2gt5gjSt8sBH2nC/ioM9/hibfsxz5o+v+Uk09rdwxk7xU0vvjeW9/mZs9cTOe/SYH3JwTF+0jIsbpH0118REmG+JpQR/zgX3EwNssy9tXhwfzAFj1sEcTCEvc2O+eJOA71Vu09b79GGfMfMejBK/VQ3q2+obO/TBbs7byg9Y0U/Nrr3ET//Zh9+cO+0SN+vCzlpWevonB/G171Fbat0pe6NvrHw38BtLb+giUASKwAWBM3shRIRXEgmusZX4QIQgG8o85NX3k3Za7CEIKRCK9COhSR1iYgsBQ4ilH+wZ89PbmYd+6E8yM+OQL5+OU/eK2EuwjKNffKZf+vFNTmfFNznqS6K8P4td2pETOVDTStQFe3FNPUlZ+nE94Ff8sQEz4jhOHz5TZ9qgM+fA+ObGnE2ZNs63sVZxbvlg3Jjqzjj0v9a3azNJ85Gf+TydwZScJdn4FYvEzbpu6Vk3NTr39j1qS607ZW/0jZXvBn5j6Q1dBIpAEbggcGYvlABDEiBZvLhOcidBTYKOb4kR+knq8SHhlTDQopOEFjKAH4k8xA7SmKSGMe8ZR988JnmlH//oS0rIBZ+8uEYgxSs/5pE62FEnNU7yYp340vcF/MUF/sXMYfxin/mewc4aJNje42/mwj3YzzcD5EDcnGvqxYdj5JZ1izn+wJlXYuta0Qd+jE+cmZv157rQBr/Gxm7qktvE8yXxv/6DDT5mXNddYkc95I6NNRLvyP/07T055TriHt/5HNCX9RrvCFNs59z53GYs14BrCRjIn3g+M+Ljs5Rz7xj4kEvm6NhXbcFgp+yNvrHy3cBvLL2hi0ARKAIXBM7uhRy8EBf0JQUQjBQOdMZ4SYwkNtgmCcAOe/Xwy8EvKdEv9pIuYycBkkwwhi4iMckxxrk3Hwk88RjLlzrX/Jg/fqgXe2qZmKRfrjN3a7Q17rTJe/G5hd30RVxszBWfU6h3EqyJDzb4Yi7nGDEVSKDrhX7nfmUz+zK3WUfGSFy8Zg1RA2RSEkuf8c3PVjtb+r22JT/srYc5B0v8rtb1kW/8ZK3WQhyu9U875wGfR5gyH+Z61KIzscTn7EMPyTz1SZ9i7dZg/1duqXOn7I2+sfLdwG8svaGLQBEoAhcEPmov9EDPQ/wS9BUXHPiPdOhfK506IV2T1GMDIYQEfS+e1+Ljv/L5CPAMSoTfEh1b3gz6aX76oI+x7/Gf/ua1b1pn/1e8/6i98CwWJeRnkapeESgCReABEfioQ6iE/PWLBTJ+TSDlH0XI+evGrfjXcuvY2xH4XkJ+Zt7O6Ly2Anx+1Hp8bS7vof9Re+HZ3ErIzyJVvSJQBIrAAyLwUYcQn8jhe/Wn97Mw+hULPrldfWp81k/11ghAqPhUnq9gFOM1Rh/d6xtXPsX+SvJoZBzsP2ovPDuvJeRnkapeESgCReABEfiIQwiSh19fb/nKiURFH7SP9GncPSwlSBW4Mj+rrzvcQ46PnINvWnONP3K9914b87BT9kbfWPlu4DeW3tBFoAgUgQsC3QsvUPSiCBSBJ0Zg915YQv7Ei6+lF4EiUAR2H0KdgSJQBIrAPSCwey8sIb+HVdAcikARKAKbENh9CG0qu2GLQBEoAt8gsHsvLCH/Zjp6UwSKQBF4LgR2H0LPhXarLQJF4F4R2L0XlpDf68poXkWgCBSBT0Bg9yH0CSU2RBEoAkXgJgK798IS8ptTVIUiUASKwOMisPsQelxkW9m9IMA/mcm/s86/auKLf2bw6Nc77yXv5vG5COzeC0vIP3e+G60IFIEicFcI7D6E7gqMd0oGose/7Q22vG79k4Lzn3iENFbeBwHIOP/GunPBP/HI63v+ffz3yex9vLB2eHPxt7/97VIjv575KPW9D0rnvOzeC0vIz81TtYpAESgCD4nA7kPoIUH9qyhJ4K0ffYEgovvDDz/0B5DeeUGALZ+OP6L4po83cL7p4w0I/748BP3WuntETL6npt17YQn598xebYtAESgCXxyB3YfQF4fvavpg66ezEqZp4Cec6EIeK++HAH+pgJw+okDCWTNH9fEJOeMl5ednH7x2yt7oGyvfDfzG0hu6CBSBInBB4OxeCHGUXPrpmz9nzyeQ+Dl6+V1d9PPP6xBQx/yUWB/5tY35lQ5zXvVrT8s4Ajkxd/r5k765CwQ6fELNOK2fqp6tTT/Z4kv7I2JE3ZB1dFeEHBz8OgI1iJeEDDte3M++9HdUn/lOP+SbfflpLDar+QJT+8XeOddXYk9OxMGGupwj71dx9Jtzj/5KyBlsaRNDfWhzbX1MTI9wnnrmJG60CHWCgXjknJrPrdb1Qk3XRDyp13Vo3Nm6ruy3zrkOjMd4Yqo94xMLfdrq495a8tspe6NvrHw38BtLb+giUASKwAWBM3shhIXDVyJDyz0HPoSLT+k8kD2M1cWWF3roc8BzDanAB+RXkagwNgUbdHlxrRBX8kOf8c1H8kI/Ql7ULEGiD7JCbujiWxKC7pnaXhwv/iO25Mx15m0u1IwwnnXQRx6JFzmCmX7IDbv8lJS66cNOuVafOvjMuRAnbBHwI1dydH6cr9QBV3TIA5/kbH74JH/GGfPedcG982cu6BmHdZTCvb6y32tzEcP0RSzkzPo4i/PUIwa58xID6uKeXIjNPfW/RoyDn2siluCAjc+E/WLgM4ov8hJ77tFhPTnH9N1al+gQjzgK84Rf/N+rUOdO2Rt9Y+W7gd9YekMXgSJQBC4InNkLOUiTwGIsKaBNmYe9Y+jlQU8/hAKCpmjr/Ww51HlNyb7pQ4IqGcEWApQ25CDJZBzSAC6T8OhbIjPzmPdiC5nhGvsUctAX45kT+U68IE7oiblkSR/6nrFeU58+jnyDk2tBPLTJNwH0kefsw5b8nA9qnoRUv5JA5oMapi/uJ0k3F1psiJUkUF9ie2Z9HGExcZ565Jexzcn54148Mu9b1+Iz19O0Uy/XFTr2z3WjffqdNZ1Zl/jBLv2Qw8zDePfSMp87ZW/0jZXvBn5j6Q1dBIpAEbggcGsv9ECWHGkI0cB2HrJHh/2ZA1lbY8z2yEfmcM0HNaCbeVsfffMlaTMPfWNzRvCn4AuCKEGD2GbemRM2xpo5cS8xNfeZDzrYI+qs/Mz6JNppN30zhh795kjfihyL9Sq26wmdxAFfkmRroM9YvnECx0nk0Ush7vTNOLky5psCbVbrgzExnFjgI3NMPa4TT2PYMm4e+HmNiEXGXtmrNzGwf9ajj8w7a2JcW3KeL9clethlfqt5Nt69tK+dh/fO+3Wr4L2jb/S3G/iNpTd0ESgCReCCwK290AM5P9XTGNuzh/2ZA3ke9n4qKok98pE56MMcaakB8skn3lynH+tL/aNrfWNzRhJbyB73khTIS/qZWKKXda3imTu282UcdVb2s08b+rXLHOlnLsjr/2vv7G4kR441asO1QS7IB5mwNowL86JnvQvQChAgQIAwkAFjgRwYB+SBLNDLXpy+e/pGh5Jk1kyzk938EqhNMjMyfg6zglHs2qluj2tlka1e5KpOx2tfr0UdR39di133A3LMjfZk1zFiyFr0Gxv91v5Anyx6zN3HLlcLW/3ygxgfJuClL87P9MSN7VFsdb26ux+OG39dwzHzNmNSlrkju6xFvurZus7auUIP05VtrfWFka8GvzD0mA6BEAiBZwJHudAbcr+po4C1s1/r4IZMQdUbBUq92esPBZiFh0/etm7qtUCw2NCO/tdisepxfvTVhz6mbv3VxlZvLM77lJwns9Vn5pGtY9ryw4g66PVL37s/6LIYUsY1Iz2MYadeY9d13T7V5droI+spMLFb5Yln9BQbW8rVa6FvzNcYHNceewaWIzbKVp/qGMdVj3Fu7Q/kldFn9XUfqxzvC+brhwb8rR8qqi/qnOmJH93o2mMAW+T6XwKMv8eDbfTt7QPXjuzWPYZuZG2j6+zcVXpYrWxrrS+MfDX4haHHdAiEQAg8E5jJhdz4+82fGzJrayGDUm/Y/WbveL1JI2+xXdc+O9cK1a2bei0gtKOOfs5410NsFI61yKDo6b6qq8emrd53trBiDHtdB+P4ZfNrG5UPcxQ9Fj7oYN1IV/V9Jj7ka+E20u0YxTBNHhz3Ocb8QNX3CNdL1v1asE5OXIPaWEMs2O9cqpzHW/ZZK+sag+u6T8ZGXxvsK+cqh+/4yss46rx6Rvad2+tdV+1XeW3V94bzru3xMM/c3j6Y2ZfoQbf7lPPOVF+u1HM9V7a11hdGvhr8wtBjOgRCIASeCczkQgskChmKIl4cj55+Mo7OejPGmMUUc8hw4+cmXYs1nyrqnAWVRUW9qXPDZx479DZ1WFSoQzv0FHT4zhzFkjIUT9jiNXoCuxWbtmtv4aIfzmGDOGojBrh0m8bCOLywX9fqt7Gh00IMWZtyW/GxBlu1oROfWEuDE8wYQ56mf9qXj7a55vjOGvz2mtPbGO92WOM1V86etch3rs7XXvvErc/0nLteNsZAj/3R/lAGG+jBD2NlrOvyHF3wc0+4Bh3Gzx7gpd7KqMZUj+WNrEU/PefEqJ26hmPXYa82bB/tA+S97qN9CSP0cv1k7HVAnuOrNq7nyrbW+sLIV4NfGHpMh0AIhMAzgdlcyE2WGyryFnb95mpxgQwvzmvjBq0MumqB47hr6b3hYwf72OXFsYUZ6/SjruWYAoM5ddNTsFAsoKfap3gyPuQsJvRfHdrgfKvtyeJ3tdtl0Y8MDd/1lXEKKWM1fv3hvI9VH7fi62vUV/sqo87uNzKwdZ1yjFnAwRy52pCDu/pGMlWe60KBO9uqfXzDl3ptj/ZHjZ31nPcxfB+N4aNxsZb9yPXkmJg5Zy9zzjiNMRhwvWYa8sTEGvTw4pzxUav+IMs5rfuvrtojQ9vbl+qv8VQdHF+1rfbtumROvmKrwZ8cXtSHQAiEwBSB5MIpTB9WiCKLQp/CtTfGmLMQ6/OvcU4BZ1E4o49CtX6gmVkTmWMCq/fBsYfnS6zOhSnIz7/GsRACIRAClyWw+iZ0WTA3cWzmSeyMzPfierQgf+Tp+Pf6dMd1M9d4RuY9s1udC1OQv+fdE99DIARC4AcJrL4J/aD7Wf6OCfDVB75qQZHtV3F6OH6lhK9h8ProRWGPP+dvR2B1LkxB/nbXOpZCIARC4HIEVt+ELgckDr0JAb7jzN6rr9H3ninI+b71I9+rfpMAYuTDEVidC1OQf7gtlYBCIARCYJ7A6pvQvKeRDIEQCIHzCKzOhSnIz7u20RwCIRAClyew+iZ0eUBxMARC4BYEVufCFOS32GYJMgRCIATGBFbfhMZeZTQEQiAE3pbA6lyYgvxtr3eshUAIhMClCKy+CV0KRpwJgRC4LYHVuTAF+W23XgIPgRAIgV+e/qe6cAiBEAiBuxNIQb5oB6wGvyjsmA2BEAiBFwSSC1/gyEkIhMBNCazOhXlCftONl7BDIARCAAKrb0K5CiEQAiFwBQKrc2EK8ivsgvgQAiEQAosIrL4JLQo7ZkMgBELgBYHVuTAF+YvLkZMQCIEQuBeBo5sQ8/UlnT/84Q8vxqsMc/wkeh+ra/mhF+b5lcZv3749TX369OnFmroeeRo/FIOc6/nRmC9fvqj6v/otP/nVR38dsstw3seIx8YP2OA3/uEH/qhLGWLChjFUGcfsWdN5/eMf/3heq1zt936xUjnjqFwZs6EDfsjT17nRD/ewDtbETPzdZ3/Yp67tMv/61780/9yjj9fXr1+fx7zOxlKvV9eJvT5GLMamjtqjb7RGB2oMrnOu9thxvvbV3yrPMbHBEfus51hf6z5xHTLwQX99vzjPXjMW5D5//uzUUy9LdSDre0671XePiYFrgk+ucd97/sLQOz8h7pVtrfWFka8GvzD0mA6BEAiBZwJHuZACypt2Lzq58Xvzp7hDVy2OmWPMQg2j3NwtOtDNDZ5CAd3Ia8MCQ0edYy3+sBZZigZsuE752uubfuAja9BlU4beRtHS5ShQ8Fdd9JwThz6wjjF1sabqQY4YeLkGm8ZMbOiVJcespzCjMe+xvtZe/Y65Xn2MwxOf0UUz/srE+GFMQy8+IsOLc/nXYhpZzpFFRn9qDE8KS4GPrA15fJOfjKuMdi0sWWsMxlljwbbr0U/8NPXIQR/o9btfpyrDsXbxkzbaX3UNtpTBJ64la/Wl+l1Zs66+X9BJ/PinbX1xf8jS64UO9iZraNVWZ8Sc7LHrObqRVUeN7T0fE9PKttb6wshXg18YekyHQAiEwDOBmVzITRk5Cx0X10JFGQsDZLxxK2/x4Dm9xarFl3MUKiPfKFp42Vxf7TpnP/IN3y3QkBvJMI4PFjecs85iTv0WQcaAf7XQQY4iqPqN7WqfwmkrZn2rfmh7q6+yrqenUZQRVy+i8Y/xWuTW+Ln+fQ1+E1uPl/MqS2zoR7Y25DoLOHZ9MK++9b2Fzh5ntcPaytu5kR7n6Ltvdc7jkd2+v5StPT71vYQ9xrlGM+8XmPb3pUU7tmCJL7WNrgPzW4zwCZ21ya3brjLv7Zj4V7a11hdGvhr8wtBjOgRCIASeCczmQm7K9cZOEVKLJosSb9AUasxX/d7EGeuvqgvnLEyeHW0HFCwUMxR46ML+VtM3ZSyg9ZV1XUZd6MbvKlPXMU6syOEzra55Ghj8B1nlmUanfLq4vulHnx+d10LP9cavHRjW5oebasdYkKWQG7WuDx69gCNW9csPnVyLzoJz7I5ertVm9afHWefQVXk7N9LjHH33rc553O2O9peytZdtHXMtOvVtxMH3y2jOMfjO+K991o0YjXTwYQF5fPwojXhWtrXWF0a+GvzC0GM6BEIgBJ4JzOZCiw4LIm7S9UkqN38KdvTxonhDpurn5j264T87Uw76Wqco9izEKV4s8vBvq+m7vtFT0KDLNpJR3qJDGez2hqyxceyaLuc5ssrLlDWs7U27Rzrruirrenqadur1Y1y5ulYGxleZaY+x+pSc9Z2RsdYnx1xH1lYW6OS8+qCd2htD9c9j46zy+l/HOO56jMM4u299Pedy0z5931+jdcj1ONVFz5zcRusZQ8coXuVn/FcWXSN7WzpG/qvrPfbEs7Kttb4w8tXgF4Ye0yEQAiHwTOCRXMiNmYKK4rs/AX1WWA4sdhzy3GLHcfr69QbOsTXyjXFsq6MWMFVfPe4ynBMHxdeRHnywaFJPffqsHeR8glyPnae38ObYIofCVR/kU9dwrF396PP9HH3VR9fT07TTmStXi2njZ2wrrqrTD2bGpG/ES1MPcvooiyo72l/o7DG4hl7/lalz+K4PdVwWjKFf/3wC3X2raz3udjnv+0vZ2su2jtUPmPrWWSLvtUOHHLsezvGffd4b/DunLUYjBvg08r/beU/nxLOyrbW+MPLV4BeGHtMhEAIh8EzgkVxo4UGxUYvLZ2XtwILCYf/MbbHjOMWFBYZjFAEj3xhDr02fenHhPP1IRt9cN5JhbbdHcVMLeWQsTmSi7+pWphZOyMCxFlv6hHxt+lbjrvP9GLn69Nv1+uN1wIfaLAYp1mw1fopkzvu1QpY44EJM/foyry1ZIac/zDmPrEWxPPUFfvIasepxuo4ev6sN50Z6qmz3zXW1H9lVrzFWeY8rW8dgBxua16nzrO8Xvw9erzdrXaMf9LU5X8dq3HV8xIBrg3zdK3XNezwmnpVtrfWFka8GvzD0mA6BEAiBZwKP5kJuzqMnbs8KywHFAvprUeIYRQdFAoVBL5Qouiz+LMBUi22fkFMMsB4bFHG8Rs0CTz9Yp34LCmVqEWihVYsXCxHG8I0Xx+izuQ5fKSKJk3mLJtYQP68aHxyIRZ/Up81a0DvXe2z7pN4511c+lRtyMqk2ekHoOXHJUhv0Fn/G6ZzxGiu2LTqdQ6fzjsECJui1V6f7qLLSfr2GyCODrnqNuh7P3QdywC6vveYamchydC2rHuYrS/dN/cBjnFvvF68JuuAKA2T1BZbYqPPE8wgj5Fnv/iE+bMioxvSej4lxZVtrfWHkq8EvDD2mQyAEQuCZwKO5kJvyzI0YvfVFoUCjQGB9LRIsxHSqruPYtcxTSLCWF75QHHBM0dD1IG+R1nUib+HTZTjvY8jbWEdBgk5sE0+3XWVqMY6O6ot66xjHFlTdD+a22ki260XGxjH+I0M8FlzMWxzW9YxXG1UXcxSHo6K36kAvL23VOY5tXFeLUXystmBW16Gvjyk/ioMxWl+DTjiwluvJNcQ2L/eK/tkjW33xGN1ba1yLLHLuJfq+Bj+O3i/EA3f97zq4LsaKjV6M7zGSE+vU0a+H8bz3Hn4r21rrCyNfDX5h6DEdAiEQAs8EHs2FFEkUS2nXI0BxyFPS0fVhzCeoZ3lOkd2LvbNsfQS9vPf84HDleCjEeX309mgufG0eKchfm2j0hUAIhMA7IvDITcinlu8ovFu56lPnvaBnZPbW782Nno7vyd99LgX5tXbAI7nwDM9TkJ9BNTpDIARC4J0QOLoJ8edsno7xdLV/9eKdhBg3TyLA1ynYG/zVhNeZxf5JISxT69dEeF9duXGN+YoK732OP3I7yoVnx56C/GzC0R8CIRACFyZwdBOicOCGzHdIOU4LAQlQoLEv2B8pxqVy3I++d3686u0l/NBAjvD1kXPAUS48+wqkID+bcPSHQAiEwIUJrL4JXRhNXAuBELgRgdW5MAX5jTZbQg2BEAiBTmD1Taj7k/MQCIEQWEFgdS5MQb7iqsdmCIRACFyEwOqb0EUwxI0QCIGbE1idC1OQ33wDJvwQCIF7E1h9E7o3/UQfAiFwFQKrc2EK8qvshPgRAiEQAgsIrL4JLQg5JkMgBELgvwiszoUpyP/rkmQgBEIgBO5DYPVN6L2Q5l+X4J+o418USQuBEPh4BFbnwhTkH29PJaIQCIEQmCaw+iY07ehiQX4UiX9zO7wWX4iYD4GTCKx+b6cgP+nCRm0IhEAIvAcCq29C74GRPvrvR3uePgRC4OMQWJ0LU5B/nL2USEIgBELgYQKrb0IPO7xwQQryhfBjOgROJrA6F6YgP/kCR30IhEAIXJnA0U2I+foyFovTOucxc369o47VtXwXmzl+kvvbt29PU3xHW/ne+91tfh3S73Ijwy9FfvnyRdUP9fy6JOvVg9+9ff78+Xmen4dHVj+Jsf+cOF9tUQ5Zjo0PWXxlHbY41j461VXZMt4bfusH9midN/O+mKN1ds7T+wuMyjiH//pl3M7V3uvzZJB5KikAACAASURBVGjwnz3WR3orD2xy3uNlrMaob9V/WTtXe+TS7k2A/bCyrbW+MPLV4BeGHtMhEAIh8EzgKBdS8FnIWJi5mGKVF80isRbHFrMWe8hRfPFCF7opyCnmOEdeGxZc1RZzrMUf1nJOIUUMrlP+qMcWti1o9R/9NgtBCmr0I48t4vHcYpc16CIWdHlufOhgHj7oYB360WUM1bb+yEaf6KsfdRw9lTV2aqGJfsb0r8aHHmNyHl3YN8aZ61P98fiI9YxeeeztryP/K1+vgXHjQ9q9CbAnVra11hdGvhr8wtBjOgRCIASeCczkQgoz5GoxhAIKY4ogmjK1ILTg0xhFKWtq+/r164si0blekDtOgVmLTNdXu8pu9RTGxMPa2tDLuE+08bXa6vFYXCtPwUexXBtz6Kx6OO8FoPH6AYF49McCGb2MW1j3mC3wtY8dxmza8LzHg51atCKHn5WJa7sux3s/y9p1W3qJFT9qzD/iP7qwlRYCEmBPrGxrrS+MfDX4haHHdAiEQAg8E5jNhRQvtZi2MFSRBZNFO4W6haMyFlDY7K9eCG4VZuqi0KNY5AkuumqhpsxWrx8Wv8pZ3DNvIcmxzXWeG7MFM370OJD1ibbrkKt6GfcJsHHQI8Payp2YtausepGvY92O/uMj18dz18ucdf3lde2ynm/12thjXdfqQx3j2Jj1Y7S/XNt959x16mUM+bQQkAB7YmVba31h5KvBLww9pkMgBELgmcBsLuwFEcWMT4ZRRsFF4Yg+XjzdtUDSGMXZbBHU16qDQsxCnCLWIroWospu9RaJ1X9kjZH5eqwe13neZYzbefseC3Loqk1d9DR6ZCgkkefc2LusevTb85Ed9PkhhnleNvzsfjnX+x5Tn/ccfdjYY60s/Zbemf31iP/4hHxaCEigvhcce8v+/9+Jb2n1ArZWg78AgrgQAiEQAi8KsiMcFDAU3RRH/asZo7UWY855TmHZW//6yFZhxji21bFVnHb99Vw/uk11UegTI/cJZG2u87zKM4b8iAs+UwTbul7G+wcLdGubtTzV1i/t0teGfB3bs4Nsj0e2VSfHsK56Gdu6Pn2tNvZY1zWzelmjbtc/4j9skE8LAQmwJ1a2tdYXRr4a/MLQYzoEQiAEngk8kgstBCnK+1cAnhWWg14w+X3q/rUOirVesG0VZviLXps+9YLR+VGvH70gsyimGKcRZ/W1x6O8T3/9znf3hSK96ukxYIt57NnQYZx+j1sdWzEj7wcV9HQ7+Elx74eGHo9fm+nXFvtVL7q3ro/+28+yVn5WL/I/4j9s+vXXh/T3JMCeWNnWWl8Y+WrwC0OP6RAIgRB4JvBoLqSIqU97nxUNDkYFqmMUnxRUFJm9MKL4o2jEt14IWlAyTuHMeuQoJnlRJCPTdXb36jrmfOpP8WlDH7ooKqtPFMSeVzu14LWoV4fn6MZf9Fq4W2DXDyWs0xfWssZCmTnO4Uejx3b3BRl40/AX5sbDmNeCtVWGdehCr/2TwK//MXbkOD5qM6zR8ahe/ZejMR75L08/mBz5n/l7EGDfrGxrrS+MfDX4haHHdAiEQAg8E3g0F9ZC8VnJ4AC99WXxSNFEoUlhyDzFWi/q6jqOXYsZvwPNenyhuOKYwhE9PrWm+LRQG7j3NIRe/UAefb3hKz4wbwGILca0WddYGBsDa2oxjqxr0anuWozjl+uxQUMPrc4h8/vf//4pBuKwYO8y+ou8MdYxxmWFr8aJTnT1pm/2I5m+Bpkj1uqz39OrjL2yR/774cd19Mbefc75vQiwF1a2tdYXRr4a/MLQYzoEQiAEngk8mgtHBeazsgsdUKD55Pe13ELno7xGttFhATmaz1gIhMDbE3iN9/aPeJ2C/EfoZW0IhEAIvHMCj9yEfPp49ZB5Us6T99duKchfm2j0hcB1CDySC8/wOgX5GVSjMwRCIATeCYGjmxB/zufrDRS4fOf2tZ86vzYm/ONrGf1rMK9hx695/IhuvzJxxgeG14gxOkLgrgSOcuHZXFKQn004+kMgBELgwgSObkIUkHz3d+Y72RcO84ddg1N9fc9XTnzCXvX8sGNREAIh8CoEjnLhqxjZUXLrgrwmxRy/vNmER3hkD2QPZA9kD2QPZA/caQ/s1MunT926ID+dbgyEQAiEwMUJcLNNC4EQCIG7E1idC2+biVeDv/vGT/whEALXIJBceI3rEC9CIATWElidC1OQr73+sR4CIRACSwmsvgktDT7GQyAEQuBXAqtzYQrybMUQCIEQuDGB1TehG6NP6CEQAhcisDoXpiC/0GaIKyEQAiHw1gRW34TeOt7YC4EQCIERgdW5MAX56Kr8Oua/OctF8sWYzbHaf88/haW+9CEQAiHw1gTIX3ttlAdrzhsdJw/uEc1cCITAFQkc5cKzfd7PxGdbX6h/Fjy/TOcNh3+Ptzf/XVluWj/yYxFdb85DIARC4C0IzOTCmgdHPvljN8mDIzoZC4EQeA8EZnLhmXGkIJ+g6xOikag3ojwRGtHJWAiEwNUJzN6EkgevfiXjXwiEwI8QmM2FP2Jjb20K8j06v859z42Ip+X8NDIXmNdPP/304gm6Op2vPXM+ea/jE65GJARCIAQeIkCOmWnmrJHs1oMJ8uDnz5+ffukTO7/97W9/+fr16wsV6q25zmPm+rx/qdSmsrVnTc+hjNmY49dHWYNP3759e5rqOlnTx1jTx9RdfeDYRsz80ilj9F++fHHqv/otv+HIenr+YvHzzz8//3qqjImJ9bUd3Yu0JzPO9RV7s7ESE/JbLxlX/fiL72khcAUC7N2Vba31hZE/Ap5EtSVvsqpJkARIkidh0pAh8Zi0DZsinTkbNhizsZ6xveStbPoQCIEQ+B4CW7mt63o0D7KePMiDCXJiLQx7TtvLhaxjHj97Mc85fiFDwYcM9mzMM1bzM/P6RGGLj+RndNDUU3MxcxSpyB7JoavKESvn2GIttvGp5n79tTf313sI/vBiDB8t0BnDBrFiB93yxR5jVc/oXsR8ZQTTGsMWkxqrfhEDumqM+MYLv+q4csylhcBqAuzNlW2t9YWRPwL+0RsRianeFAjT5Elis5GMalLGp5oUmavJy3XpQyAEQuC1CMzmwkfzoMWXBSz+ckxhSyFX21EuZB1rel7lvBZzRzmU/Iv92ljPOotW5roexoifV21dTv1VDr8pxm3Ewrpa8Dtn33M/cVaOyClT45eTMc7ei9BX7z3fG6v+o4sY6/2NOfyp114W1bY60ofAWxNgz65sa60vjPwR8CSnLXmTYk0oyrOmv3xyQeisqQkL2apH3VVmIbKYDoEQ+IAEtnJbD9W81sc5N1fV/IW8hWFd48OJmteOciHrkcFXi1uKOZ7i1sZ8LdopABnTljoY66+6jrkaCzaIh1dtVQ5/KI6rnFy6Lc5HbNTtOnpeo691VBnX0VPoo5+GLyPbjNV7EUzrB5Iag7pZI5NRrMrRyxkfR4312INB1TuSzVgIvBUB9uLKttb6wsgfAW9SG7lrUjRRIYN8PR+tYwyZmrB6YlI3475ItvUp+5bujIdACITADIHZXPg9ebA+DdWXUbF2lAtZSxFXn5KzphaRyOgjMVGsU2RzbJ5lDTJHzXzb+76WeXRaoOqDcubwI3t93nXaf6Qgxx/W6QvnRw17MnKdMbj2KFbl6PWh6nSea8Z1JCY+CKjX+fQhsIqA75tl9lcZXm33EfAkpi15E2dNesj3JzfES9KuCYo19bwnJnUrw9MXEtnek5XVXGM/BELgfRHYym09iu/Jg+gm79VmsVYfLBzlQte7lkKOPNh1K2ffc6jrR+vqVz96LkYf8fOqDTkKy/rBoMppv+p2/WjMOdfR+8S72kCuyriOHn+8pvgycy9iTWVSY1D3UazK0csZH2tjnHtYvfYj1nVNjkPgrQj4vnkre91OnpB3IoNzktPWhTIpkmhsJE7k658EmetJjzU1CfbEpO6a1PZ80X76EAiBEJglsJXb+vq93GOuGuXBOoZO8mB/qHCUC/WFfOlDifoVE+d7r1/mUApB4u1rKY5rgdxzMXq3itT+XfAuh78UxTXX84Gic6m+V7+RRQcvjm1VxjF62BrfzL0Iv5RXT4+BcZgcxep6YkNe7o5v6d1j4dr0IXA2AfbsyrbW+sLIZ8GTAJHdkjcpkmhMuPQkRdYwTrKxJ2TOuTEwZvNGUROeydSkRm9yd136EAiBEPgRAlu5reqsedB8VOctwHoepBAlZ7nGHGbxO5sLR7bqU9Y6X4/Nodix+cSZHM04xegoF9cilZxu7jXPj3L2SE4fWM+HET+QqEe/au8aH+p4Dk+Lclhy7eoY8WBHGWzs3YuYJ06vjz6whpc+zsbqenTim9fZcdjjH/rQbVzI12ukfPoQeEsCM7nwTH9SkO/QJUlzgR55mdhIiCZ+EpDJhiTEOS+TLXPVBnb7GPOsIXGZbHdcz1QIhEAITBEgt+y1UR6sBWzNXR7XfGdxxhzFozlyNhd23yjm0HPUut/6jF2KYvIpPuEfYzSLXONgTR9jro8Rbx9DzkbhWQtjYthqPffrd40HW9qzyMUeMl331r0I+8a512tHmaNYq5/6ZKz4JgeuAdy5lox1v12TPgTeigD7dWVba31h5K8JnqcAJBV0krzSQiAEQuC9EHjNXPgWMVPc+jDjLexd1YaF8o/cc/hQ0p9iGy/jzKeFwF0IrM6FKchfaafxSZ9P+T+SHF/JlagJgRAIgWkCq29C047+KjjzdPxRne9R/jUKcj7c7LWj+b21mQuB90ZgdS5MQf6KO4anNinIXxFoVIVACJxOYPVN6ChAHnbwNQi+msErReL/EfOrLflrwdEOynwIzBFYnQtTkM9dpykpbhwpyKdQRSgEQuAiBFbfhI4w+NdHvj6RYvz/aO19T/uIZ+ZDIATGBFbnwlsX5MDPKwyyB7IHsgeyB7IHsgeyB7IHxqX624zeuiB/G8SxEgIhEALXJUARkhYCIRACdyewOhfeNhOvBn/3jZ/4QyAErkEgufAa1yFehEAIrCWwOhemIF97/WM9BEIgBJYSWH0TWhp8jIdACITArwRW58IU5NmKIRACIXBjAqtvQjdGn9BDIAQuRGB1LkxBfqHNEFdCIARC4K0JrL4JvXW8e/b4LYn6zwjyr2blx3H2iGUuBD4OgdW5MAX5zl7yhxe4SEevHTWZCoEQCIHLEji6CfnvXe/lwI/yzxFSkFOA83Pz/HOL/qz7ZS9eHAuBEHg1Ake58NUMbShKQb4BhmEK8k+fPj0lZsW4YPwbsDYSd345ThrpQyAE3huBmZsQec6CvMbHODmSov0jtG/fvj3ld2Plh4iIMS0EQuDjE5jJhWdSSEG+Q3d0k+GC1YKc5V+/fn1RtO+ozFQIhEAIXIrA7E3IH6PpzvMk+aM8Ie+x5TwEQuA+BGZz4VlEUpA/SHZUkKuCufpi3JuY47Nfg0EuLQRCIATOJkBummnmsiNZHlDwV0NzHk+ZKdpp5DW+FuIcXw/pDz6Q/fz589NXR5BDFzpt+qEOevSwxlbnOK75tH8FB319jPOeq5FLC4EQ+LgEyBUr21rrCyP/XvCs20rM3Ei42fDyBkSI3kD806dyXY83BeUW4onpEAiBmxCYzYXmsT0s5C70kctoFrUWy5xTYJvjzHn1f6Rk3q8Kkis5RmeVocjXb2TQX2XMsejiuDe+moI8emw85WesPu3Xf3xIC4EQ+NgEzCmrokxB/iB5LlgvpKsK5uo8N4PRjazLocObU9WX4xAIgRA4k8DsTcg8hrwvxmoBa6FLb6MoRo5GgVufdlvwWsBTdKO7FtEW1/VfO+m5sn8QwNYox+oTPXa0q2+M4ZMNX7ucc+lDIAQ+FgHe6yvbWusLI/9e8Kzz5jJyv98EuMH0mwfruhxjI7mRjYyFQAiEwGsRmM2F5KwqW7+aMnqCTO5zDX1vFNqsq0+xkeMvjL35BNxiueZK9VCw1w8C6BrZVTex7BXk6PIDRpVzffoQCIGPRaDmtxWRpSB/kDoXbC/J15uAf2KtNw/NVTnHRnLOpQ+BEAiBMwjM3oTIWV2WYphCmHG/hkLRTFHN10E4HuU6xlmDnEU2sSFbn4Qbr7lRWc/RwYs1jNWmv8pgq8owXs/1id5iHH1drtrIcQiEwMchwHt9ZVtrfWHk3wuedST6rebNhz/jcrOiefOoa5SrYyO5Op/jEAiBEHhtArO50AK323ecQtai1ocRyI5yHePkR7+3bWGsLnOntsyNPgH33Hns9dxc7fJhoX8XHXntokff8al+rabLaTN9CITAxyIwmwvPijoF+YNke9Lvy7kJ8CSm3lD6zYM19WahjpGcc+lDIARC4AwCszchi+XqA3mO9bwoekc5bJTrqg7WkjNpvUBXjq+sKMPYlp0aS7drwc1aGrIec+48PtTW5epcjkMgBD4OgZo/VkSVgvwB6j6F6QW3Krg5MdfnvZH5J91ZOfWmD4EQCIGzCMzchMhdyFVZCli+/82Y/4qKBbVPyOnJh8gxx1Nqxnxgobz/2gnjyPIVFPTT6DmvT63rv7JSZbBFM8eSez33Cbl68LsW5PpCb7NIZ21aCITAxyZQ89uKSFOQT1K3qOaC+arJHDWO03sjqGMcm+DreF+r3KRrEQuBEAiB7yZAvtlro9xn/qJ4rnmQQlh5egp5inUKaov0+j+Doodi1wIdPzi2eGYeGxbnzKtfH+jRT5HuV1rqnMfowTY+WXwzxhpiUI4ee30Mu2khEAIflwDv/ZVtrfWFka8GvzD0mA6BEAiBZwLJhc8ochACIXBjAqtzYQryG2++hB4CIRACq29CuQIhEAIhcAUCq3NhCvIr7IL4EAIhEAKLCKy+CS0KO2ZDIARC4AWB1bkwBfmLy5GTEAiBELgXgdU3oXvRTrQhEAJXJbA6F966IAd+XmGQPZA9kD2QPZA9kD2QPZA9sPLDwq0L8pXgYzsEQiAErkCAIiQtBEIgBO5OYHUuvG0mXg3+7hs/8YdACFyDQHLhNa5DvAiBEFhLYHUuTEG+9vrHegiEQAgsJbD6JrQ0+BgPgRAIgV8JrM6FKcizFUMgBELgxgRW34RujD6hh0AIXIjA6lyYgvxCmyGuhEAIhMBbE1h9E3qrePmlUH8t9K1sxk4IhMD7IbA6F6Ygn9wr/JwzP6XMTy1z0XhxTIJ3blJVxEIgBELgMgQeuQnxs/OfP3/+5Te/+c2LPMhP0V+9/fTTT0+5+up+xr8QCIE1BB7JhWd4mIJ8guq3b99++Z//+Z+nAvzr16/PK7g5UaRzEenTQiAEQuC9EZi9CfHwgTxIYUtOtJETKdB5QMHDiSs2/MLvtBAIgRDYIjCbC7fW/+h4CvIDgrUY37rZcKP69OnTgaZMh0AIhMD1CMzchP75z38+PXjYKmp5OOFDi608uTJycjSvtBAIgRDYIjCTC7fWvsZ4CvIDir/73e+ebkT1yfhoSX1Czg2JAp0bFBcYHT5RUh/jvOo6b3rO0dNG41VmNM8YNnlyhR/cMLttZHzCr77qj3F2/ejpY/raY8f+zI2w2scH+NUx+DMmS7865Dm+Km+v/zXGqlc5ezhVWcY577Fi0+bTQWSPYu26tdv/lI5O40OmznNN+coAvsKaOW3XPapue/zFb8/piYuGX/jOGHrRbxut6WN1fdXvMT722CtDbClrr2/6kf48AjA/au4P89hInn2DLq41+cZrOer5istoH7GnHXc/770f2Cf6hh3fw92/+h4a+dPH3H/44/sNGd6X+qUN9zZ+c8yr+kT+6/rrOUzrucfo6LkTWfn09yp+HeVIZNCPDpq+a9Pxei2r3FaMstjzT7+1BeM+hj99DLnuJ+c07zfqrNdZn9KHwCwB9tHKttb6wshnwNebyqyrJAiSNomRY58ckVxtFlHM9cYaZHlxbDPReW6CYpw2WocdEisJTl3adh1r1dWTv7bokYcZ623aJF71Eze+Extj2nPetb1Xl+MkYezhE3OccwOSbU3SssUmx6zr9uDAi6YtuNTmNaNYQEf9Xqz+IGPDN/wxVuZYh+xWU7cy6GCNetHFuTcc7eo7596wGOMGiw7YsI71NGPs+8i1ymlff9wLtejwGtY9Yxysp+k/x/ghW/zQ977maWH5z8hOmc7hSQS4XnvN9z57bK+5V3lPcOzecNw9zd7zuF9zxtkv7B/WzbwffA/im/tX24yho+5P3xvuUWNyre8Nxs03rOHle7zqR469bUyco5u1rGHO9442iI3G+4xX9wkf0FHf0+jg/exa30/oZD3jRzkSW+glDmNQj4zQw3XhpcxRjMzv+fcU7C+/PN8P5KFe4qy2+r5ATnbKETOM8Z9m/P26Pk3mPyEwQeAoF06o+CGR/Uz8Q6qvvXgGPG9w5B55g5McLBAlQHKpNzMTi/O9x97IZh0b6ajrSOgWQlX/aB1yxEm8ew0Z1tdWbTJuIleGG8CMbuSrbtlXn7BFAq7NeEzSrvNc2VFhWnkqR6+Oats4qo9c03rz5gZBrDDYaiPd+KYv3KjQUW9YxOw8eo0Zezb1elNlnDV1HfKco9/Gfq170xhqnNpzDb32KiPn0V/tOr63BpmRHdemP49A3Q8jK1630TWt8sp1fY7XPeW6fs37e+fo/YBu3pu2kS32eJVBllh6PN0Xcgix1PcZx7xf63tG2zW+kX7ktIGfvfU12lcWNj2vkRuqL+g4ypHalbXMtMP9oMasPP1ejDP+GX/V2e1rp++jfp/iutZ8xzplav6stnIcAnsE+p7bkz1j7v/vzGdov7DOGfAmip6498LqSXUkO0pKVW5LR/VjpMN1JFMSVS0W1d/XcaOy2DQhK9t7mLG+Nm3WMY79QMDNgnVHullDMrXJvq4b2fKGXf1Crn4oQkdP3CNdW7ax0e3oH7H1V7WtTnvXGRc3Fdb3Gy3yjOEn8/S2fg0dh3WV6zGib2stewZf8B17ledoTY9DH+i7v87trUFmZMe16c8jwPXaa163urdG8sp1fY7XPeX6es057oWzcvRb7wdlzHsUpLWgHPnd3xvoqL5wjszovWzRR1w28h3vH9tIP3PaqGtHa9BHHDUWuG69zPUjuz13aQ+e+Oz1oWes5mFl6Y9i3PKNcf0z/qq32ne8y43uU8S6ZZM40kLgUQLsp5VtrfWFkc+AN5HVJxBHLo8SYl9jsjGZoJ+C0ZvIlg7GberwnL4mKG4k+N9bXUeSw+YoIfZ1nOtv76tf6COhExPJfrbYRz++2UY+bXHBn9FakzLrOostXdivtlnn2mpHGf2d7V1XGdZrr32uH0+ckO++1mtY7Xa5ei6L0VquE9eL68aNs8aJftdUnz3Gv96Yw3Zvo9iJUb7a6etyfi4Brtde4/p4vffkvL79Ca3jXN/evOboZw+6T6sc6/feD8hqAzmObezn/mGcufreUFZfPEcGn3pTrtrhuJ6P9KNntFb9rJEzPbHUDyiMVRuuq/2WXdZiuzY/WFSbHG8V5Ecxzvhn/N1mX6sc/m7dp4i1x1Tjy3EIPEqAfbiyrbW+MPJZ8CTFniz23CZJjJI4NwaTaU02FLAURNjwxrGVVBm3VR2Ouc4bKL5b5CvjOpKchRB+zcSITE+A2lQ/5/WpzqxuC3n1jNZ1W8iybssv4od7LxBYN9LVbfuBwvFqR//qDVO50ZhzrqOn0eMne4ZYnK+FSffVa6hOe+JE1uY64nAf9LWcY9u9wNoaJ+d9DWP6aRzadH31w7m+Bk7YJn7ayI5r059HgOt91LhGyI2ut2u9fuy32rzuzPfmGvanNupedO3e+0Gd6DCXaot+5LPvDdfS64tjyBCz7x3Hlat+UsRWuZH+auPIJ3RZMBsLvoyK5ZpvRnbRxVr14Ac8GfNDP8f41G0aM/1RjDP+ya7q9RpXJsoRm5y7HLGOcjvxVl3VVo5DYI8Ae3hlW2t9YeSz4EkIyNYis7tt8mTcRFKTH+MW21Wm6sEGCYY2SqqM12SsnaqjrjOx1jXIus4kx1hPdFVnPcbHHle1iWyXmdWN3iOfui3seWOh8K5Nu9zk681cmZEu51zbC4seG8Vk3xf40Rmpl17d9DavCWMeO0fffR3JYBf/aqysI372p62v7bqR63H2NciM4tAG69Hb22gNcsjTRna6jpy/PgH572n22o2uK+vYY74fuh7Xcn17q9e85lrl6rxjoz3rHD3xsO9pW/6OdHRbvbjXBjlV/YwRe83v2h3Z1gZMehv5VN9LFM/9wzM6qu2Rjp4jvVboJm94fej7nD7OxDjjn/Grl77ad1y5vXuC16fmPNZzffA3LQQeJTCTCx/V+Yh8CvIJWiY0izvf7PTMkYjqGEmTC0uiJLGQJGvSQL5eeBOLxXNNqiQr5rlZ0dvUYcLCPv5ZIHqOnb116DP5VR+1Y48dY3IMG96Ejb+ek+xhoA/VD3XQEyPx1CbzugYu6kIW/cQst7qeY+TxpzfZsFa/qww2qx3mvGnUm59y2MAHXls61e8a9NGIgWuGPY6d91rQe12ZQ8brhS/4zwt+6LFtxShD9NBYh/9cX9Zo372rjP6pXx/003H0Ilt9cU7dxk7vfkFGncqnfxsCXK+Z5nuSPVPzTt2j7KHeXDd6n6Kr7i3P3dvuGfdZtcUccoxpV3l9HNmcfW8gxz5mj/Y9Sz6mIYMPzhs779lRLkCWeF2vvD7x/rQZC2to5mDWM8b7BRvVtu9v1tJ4PyIjB/1FB+tp3Y7Xi9iRd021w7oe44x/Xl/zD3p833uNGVPOfTaSkxmxEDd67JFPC4FHCbCXVra11hdG/ih4khFJkOTMWl4kLJIAiaE2koiJkaRVE43j6qBHRj0kamzw4thkxTrt1LUc49torI6zvtvG5z6Gvd6qHuywpo8xTiNW/SfRk3g5Z43+V/3G1/2v5/qEDljpM3qdqzo9xr43Ise2/Ha++4N8H8O+DRv4JJd6A1HGvusxRvR5g4aR8dHDKOThvwAADOdJREFUjxiI1X2kHm/u6OG48lW3fuFDHeOY2PBX/7GDDvY1Y3Ufu5Y1+ucY/tBGbBmj6bNr6IlJv5HDLuMwrbE8Kch/TiMA89nGfuSauWdYy3Vzb3Y9o+uuzGgfcd3ZF+jlxblyW+8H3jvuHda4p9jPo/ejuu3xx2N79y320ec4dpwbrVOu9lvxEo+tynsMY2NRrr5PmDdvOI9OxmXWc2QdJ7Z+ffSpXl/92eu1v+efttWDbB/Dnz6G7j6GHI39aPHeY9Wn9CEwS4C9ubKttb4w8tXgF4Z+KdMkVm46JNbevPmbfEnKvGYbiXqkd3b9VeXgkf171avz/vzKXvr+a0YR2ItitTHO/Fu2R3PkjG9Xi3HG58iEwPcQWJ0LU5B/z1XLmlcjwNPQo6bMIzcbn5wc6X6P8ynI3+NVu67Pq29C1yVz7Jm5aUvyaH5r3feOP5IjZ20cxXA0P2snciGwmsDqXJiCfPUOiP0pAv4pmz8Zczxq/gmUJ+7Ijf5cPVr33sa46ZI4PuLT//d2LT6Cv6tvQh+B4RVimMmRV/AzPoTAVQmszoUpyK+6M+LXMwEKbd4o9cVYb4zx51W+/zia7/Lv8bwy4Niv87zHWOLzNQiwj9LeN4HZHPm+o4z3IXAugdW58LaZeDX4c7dVtIdACITAHIHkwjlOkQqBEPjYBFbnwhTkH3t/JboQCIEQ2CWw+ia061wmQyAEQuCNCKzOhSnI3+hCx0wIhEAIXJHA6pvQFZnEpxAIgfsRWJ0LU5Dfb88l4hAIgRB4JrD6JvTsSA5CIARCYCGB1bkwBfnCix/TIRACIbCawOqb0Or4Yz8EQiAEILA6F6Ygzz4MgRAIgRsTWH0TujH6hB4CIXAhAqtzYQryC22GuBICIRACb01g9U3oreONvRAIgRAYEVidC1OQj65KxkIgBELgJgRW34RugjlhhkAIXJzA6lyYgvziGyTuhUAIhMCZBFbfhM6MLbpDIARCYJbA6lyYgnznSvEriFwgX5z3X0TjZ8xtX79+ffrJduT5xUh/RbGvUV/v1cNPov/000/PdjnuPwPf19Zz7Hbfme8NvfjpWmLpdn7++eenX75Ehl/ANCZ0bcXVf7YenTWeOt914EMfw3Yfk7u+2xsjfuKv4/bVf2XTh8CdCfDeSAuBEAiBuxNYnQtvm4lnwVOQIktvszj89OmTQ798+fLlqbhljvb58+endYzTKErR0wtCCksK1H//+99PchTjFMna45x5xmqxjDwFp02fXMe4vuuDsvbYVh476Ks6iQHbzFV9Ne4eF350PZxTkOOzdtBrUwcyNuOrbLbkYFPliBfW+ImeERvtpA+BuxOYzYV355T4QyAEPjaB1bkwBfnB/rKYo7fxJLwX1xSFtfC1eLTgZW1fwxhFsU97OaeIrMUqY+qqBatr6WkjP0djv4o/dRTcteGHG5LCmWNirc0n3fhk63ERg3qQqR8wOPfDiuvpuw7GOpuRHH5Q8FeGfOhBn9fsiEP1I8chcDcC9b16t9gTbwiEQAhIYHUuTEHuldjoezFHAWiB7NPuLrOhaqroZEPUJ9Dqokjvm6UWoSMfRmPq6z2y9UOFRa1Px5UffRjBr8oCPaMYsGGx3mOpOrR1VJDz9Bt/upxxwwz/PadPC4EQeEmgvxdfzuYsBEIgBO5BYHUuTEF+sM9qMWcxzpJaQFaZPXV1jXK9mESmPwlHFrm+WRizjXxwjHW+0E0ctambJ9cUuTQL8i6rTgtwZNVtj766jqKYMQpk/oqg7uqDa3tfY9QW6y3GGUOmy+GnH2LUyVhaCITASwK8P9JCIARC4O4EVufC22biWfAWoHz1pH59g/UWpVWmb+j6NZa6RrleTCJDIdkbcjx5rq0WofpQi84+hv/oqN8TVx8FNHaZp9i1aK4xI6vOra/iWHwTB7Lo6k/M1a1t+hk2yvHBodrvDJHDD+wyp8/0aSEQAi8J8N5LC4EQCIG7E1idC2+biWfBW8zVApBNWwtIi06LWTc1RW5dV9co04tJv6Pdi0eK5f41kPodcP2s60Zj2NuK3UKZDxH4jhzytVGgM07Ba+txaRd9Hle/tON6+q6Dsc5Guf4XhC7H9fDDBX6OfKi2cxwCdybAey8tBEIgBO5OYHUuvG0mngVPQY1sLawt8GqBbJHJ02eOKZYpFCkOaRa4tZi0kKd4rHIU9oxZ9GKbMc55oZ++6hr56ZjFMH3Vjf/4RUMfNonVMb/vbezK1A8CxoVPNOJwXS3sZYUPcMEOxT0vdSijHn2tbFhX4x4xZB45/zohB+N4cjT/CYEQeCLAeyUtBEIgBO5OYHUuvG0mngFvkY0sL4rJPkZxaWOOIhJZikILSdapg541fYxxGwWqRau6KIZprqPwt3CussjjR/eTcXyj6FWXxbM+o7N/RaXGxHwtavUF3fVFYc86GwU886xnjU/ZGe86tth0OfT3MWzIwqK9c6h+6V/6ELgzAd43aSEQAiFwdwKrc+FtM/Fq8Hff+Ik/BELgGgSSC69xHeJFCITAWgKrc2EK8rXXP9ZDIARCYCmB1TehpcHHeAiEQAj8SmB1LkxBnq0YAiEQAjcmsPomdGP0CT0EQuBCBFbnwlsX5MDPKwyyB7IHsgeyB7IHsgeyB7IHVn4+uG1BDvT//Oc/K9nHdgiEQAiEQAiEQAiEwEUI8K+z7b3OdDMF+Zl0ozsEQiAEQiAEQiAEQuBdEPj73/++6efe3OaiByZSkD8AK6IhEAIhEAIhEAIhEAIfk8Df/va3zcD25jYXPTCRgvwBWBENgRAIgRAIgRAIgRD4mAT++te/bga2N7e56IGJFOQPwIpoCIRACIRACIRACITAxyTwl7/8ZTOwvbnNRQ9MpCB/AFZEQyAEQiAEQiAEQiAEPiaBP//5z5uB7c1tLnpgIgX5A7AiGgIhEAIhEAIhEAIh8DEJ/OlPf9oMbG9uc9EDEynIH4AV0RAIgRAIgRAIgRAIgY9J4I9//OMve68zo05Bfibd6A6BEAiBEAiBEAiBEAiBAwIpyA8AZToEQiAEQiAEQiAEQiAEziSQgvxMutEdAiEQAiEQAiEQAiEQAgcEUpAfAMp0CIRACIRACIRACIRACJxJIAX5mXSjOwRCIARCIARCIARCIAQOCKQgPwCU6RAIgRAIgRAIgRAIgRA4k0AK8jPpRncIhEAIhEAIhEAIhEAIHBBIQX4AKNMhEAIhEAIhEAIhEAIhcCaBFORn0o3uEAiBEAiBEAiBEAiBEDggkIL8AFCmQyAEQiAEQiAEQiAEQuBMArcuyM8EG90hEAIhEAIhEAIhEAIhMEMgBfkMpciEQAiEQAiEQAiEQAiEwEkEUpCfBDZqQyAEQiAEQiAEQiAEQmCGQAryGUqRCYEQCIEQCIEQCIEQCIGTCKQgPwls1IZACIRACIRACIRACITADIEU5DOUIhMCIRACIRACIRACIRACJxFIQX4S2KgNgRAIgRAIgRAIgRAIgRkCKchnKEUmBEIgBEIgBEIgBEIgBE4ikIL8JLBRGwIhEAIhEAIhEAIhEAIzBFKQz1CKTAiEQAiEQAiEQAiEQAicRCAF+UlgozYEQiAEQiAEQiAEQiAEZgikIJ+hFJkQCIEQCIEQCIEQCIEQOIlACvKTwEZtCIRACIRACIRACIRACMwQSEE+QykyIRACIRACIRACIRACIXASgRTkJ4GN2hAIgRAIgRAIgRAIgRCYIZCCfIZSZEIgBEIgBEIgBEIgBELgJAIpyE8CG7UhEAIhEAIhEAIhEAIhMEMgBfkMpciEQAiEQAiEQAiEQAiEwEkEUpCfBDZqQyAEQiAEQiAEQiAEQmCGQAryGUqRCYEQCIEQCIEQCIEQCIGTCKQgPwls1IZACIRACIRACIRACITADIEU5DOUIhMCIRACIRACIRACIRACJxFIQX4S2KgNgRAIgRAIgRAIgRAIgRkCKchnKEUmBEIgBEIgBEIgBEIgBE4ikIL8JLBRGwIhEAIhEAIhEAIhEAIzBFKQz1CKTAiEQAiEQAiEQAiEQAicRCAF+UlgozYEQiAEQiAEQiAEQiAEZgikIJ+hFJkQCIEQCIEQCIEQCIEQOIlACvKTwEZtCIRACIRACIRACIRACMwQSEE+QykyIRACIRACIRACIRACIXASgRTkJ4GN2hAIgRAIgRAIgRAIgRCYIZCCfIZSZEIgBEIgBEIgBEIgBELgJAIpyE8CG7UhEAIhEAIhEAIhEAIhMEMgBfkMpciEQAiEQAiEQAiEQAiEwEkEUpCfBDZqQyAEQiAEQiAEQiAEQmCGQAryGUqRCYEQCIEQCIEQCIEQCIGTCKQgPwls1IZACIRACIRACIRACITADIEU5DOUIhMCIRACIRACIRACIRACJxFIQX4S2KgNgRAIgRAIgRAIgRAIgRkC/wvldPg/R3siDwAAAABJRU5ErkJggg==;" vertex="1" parent="1">
          <mxGeometry x="20" y="570" width="740" height="463" as="geometry" />
        </mxCell>
      </root>
    </mxGraphModel>
  </diagram>
</mxfile>
